<?xml version="1.0" encoding="UTF-8"?>
<svg version="1.1" xmlns="http://www.w3.org/2000/svg" width="1024" height="1024">
<path d="M0 0 C337.92 0 675.84 0 1024 0 C1024 337.92 1024 675.84 1024 1024 C686.08 1024 348.16 1024 0 1024 C0 686.08 0 348.16 0 0 Z " fill="#FCFCFD" transform="translate(0,0)"/>
<path d="M0 0 C1.11433914 0.00303635 1.11433914 0.00303635 2.25119019 0.00613403 C3.41942825 0.00350555 3.41942825 0.00350555 4.61126709 0.00082397 C7.19829505 -0.00359493 9.78525522 -0.00065643 12.37228394 0.00271606 C14.16207899 0.00204304 15.95187396 0.00107302 17.7416687 -0.00018311 C21.49778105 -0.00166013 25.25386966 0.00049462 29.00997925 0.00515747 C33.83578887 0.01085476 38.66154288 0.00757578 43.48735046 0.00158501 C47.18466616 -0.00202048 50.88196858 -0.00088208 54.57928467 0.0017128 C56.35917162 0.0023821 58.13905975 0.00155353 59.91894531 -0.00076675 C62.40212216 -0.00329309 64.88520768 0.00054702 67.36837769 0.00613403 C68.11127045 0.0041098 68.85416321 0.00208557 69.61956787 0 C74.69552132 0.02126595 74.69552132 0.02126595 75.80978394 1.13552856 C75.90782055 4.2074228 75.93969205 7.25684846 75.93003845 10.32914734 C75.93089288 11.30597078 75.9317473 12.28279422 75.93262762 13.28921837 C75.93428539 16.58899945 75.92875621 19.88873061 75.92330933 23.18850708 C75.92302749 25.54330443 75.92318511 27.89810187 75.92375183 30.25289917 C75.92403996 36.66793226 75.91814085 43.08294682 75.91117787 49.49797559 C75.90510342 55.51616002 75.90455606 61.53434666 75.903526 67.55253362 C75.90133517 79.47595407 75.89467423 91.39936769 75.88522339 103.32278442 C75.87605008 114.90807053 75.86896885 126.49335479 75.86471558 138.0786438 C75.86445285 138.79227302 75.86419013 139.50590224 75.86391944 140.24115659 C75.86261445 143.82107897 75.86135073 147.40100137 75.86010754 150.98092377 C75.84973395 180.6991299 75.83204066 210.41732891 75.80978394 240.13552856 C72.82393151 241.71499452 69.83674397 243.29191962 66.84933472 244.86843872 C66.01545731 245.30958511 65.1815799 245.75073151 64.32243347 246.20524597 C56.19681726 250.49041522 47.96150698 254.52729121 39.68478394 258.51052856 C38.17362593 259.24007788 36.66255965 259.96981723 35.15158081 260.69973755 C32.1383901 262.15478673 29.12423885 263.60782256 26.10958862 265.05984497 C22.71327325 266.69716745 19.32248011 268.34544464 15.93481445 270.00057983 C13.06176016 271.40374935 10.18542322 272.80016616 7.30978394 274.19802856 C6.2783728 274.70446899 5.24696167 275.21090942 4.18429565 275.73269653 C2.7768811 276.41356323 2.7768811 276.41356323 1.34103394 277.10818481 C0.53214722 277.50271851 -0.2767395 277.8972522 -1.11013794 278.30374146 C-3.19021606 279.13552856 -3.19021606 279.13552856 -6.19021606 279.13552856 C-6.21308128 243.73699482 -6.2307137 208.33846236 -6.24128139 172.93992275 C-6.24253217 168.7652972 -6.24382649 164.59067167 -6.24514771 160.41604614 C-6.24541002 159.58491755 -6.24567233 158.75378895 -6.24594259 157.89747464 C-6.25029952 144.42190682 -6.25818719 130.94634324 -6.26736886 117.47077794 C-6.27670476 103.65411175 -6.28227154 89.8374478 -6.28430456 76.0207786 C-6.28567992 67.48815132 -6.29003121 58.95553605 -6.29813253 50.42291247 C-6.3033992 44.57988296 -6.30502054 38.7368597 -6.30371744 32.89382798 C-6.30307394 29.5175766 -6.30409296 26.14134626 -6.30942154 22.76509857 C-6.31435125 19.1132946 -6.31321703 15.46154319 -6.31047058 11.80973816 C-6.31338342 10.73096737 -6.31629626 9.65219659 -6.31929737 8.54073578 C-6.31730632 7.57036076 -6.31531528 6.59998574 -6.31326389 5.60020542 C-6.31364361 4.75608713 -6.31402333 3.91196883 -6.31441456 3.0422712 C-6.05474146 -0.94432921 -3.36451699 0.0140958 0 0 Z " fill="#9AB619" transform="translate(574.1902160644531,161.86447143554688)"/>
<path d="M0 0 C1.10031303 0.00303635 1.10031303 0.00303635 2.22285461 0.00613403 C2.99192642 0.00438171 3.76099823 0.00262939 4.55337524 0.00082397 C7.10793787 -0.00359483 9.66243185 -0.00065646 12.21699524 0.00271606 C13.98437005 0.00204303 15.75174477 0.00107302 17.51911926 -0.00018311 C21.22815327 -0.00166012 24.93716324 0.00049458 28.64619446 0.00515747 C33.41147017 0.01085476 38.17668956 0.00757577 42.9419632 0.00158501 C46.59295581 -0.00202052 50.24393497 -0.00088206 53.89492798 0.0017128 C55.65248623 0.00238209 57.41004569 0.00155357 59.16760254 -0.00076675 C61.61964678 -0.00329314 64.07159855 0.0005471 66.52363586 0.00613403 C67.25717789 0.0041098 67.99071991 0.00208557 68.74649048 0 C73.7589826 0.02126592 73.7589826 0.02126592 74.87324524 1.13552856 C74.97106774 3.7909943 75.00318671 6.42043772 74.99349976 9.07633972 C74.99435418 9.91840593 74.99520861 10.76047214 74.99608892 11.62805551 C74.99774631 14.47179486 74.99221814 17.31547623 74.98677063 20.15921021 C74.98648879 22.18888854 74.98664643 24.21856697 74.98721313 26.24824524 C74.98750123 31.77694417 74.98160263 37.30562162 74.97463918 42.83431554 C74.96840756 48.60524593 74.96780199 54.37617675 74.96661377 60.14710999 C74.96349989 71.08353216 74.95528573 82.0199444 74.94526428 92.95636219 C74.93410491 105.40354747 74.92859314 117.85073322 74.92356884 130.29792225 C74.91310316 155.91046321 74.89550262 181.52299533 74.87324524 207.13552856 C74.32621539 207.42336149 73.77918554 207.71119442 73.21557903 208.00774956 C70.71496045 209.32355514 68.21439053 210.6394532 65.71382141 211.95535278 C64.42299274 212.63455025 64.42299274 212.63455025 63.10608673 213.32746887 C58.87640303 215.55337789 54.64757806 217.78080965 50.42402649 220.01834106 C42.11560755 224.41708145 33.77930567 228.74277225 25.34980774 232.90505981 C21.76361726 234.67971275 18.20428215 236.50348828 14.64668274 238.33474731 C13.55960022 238.88984985 12.4725177 239.44495239 11.35249329 240.01687622 C9.18332664 241.12470693 7.01800265 242.24009897 4.85688782 243.36355591 C3.86584045 243.86709595 2.87479309 244.37063599 1.85371399 244.88943481 C0.96579163 245.34648804 0.07786926 245.80354126 -0.83695984 246.27444458 C-3.12675476 247.13552856 -3.12675476 247.13552856 -6.12675476 246.13552856 C-6.14954459 214.94099965 -6.16725266 183.74647293 -6.17782009 152.55193767 C-6.17907087 148.87301418 -6.18036518 145.1940907 -6.1816864 141.51516724 C-6.18194871 140.78272893 -6.18221102 140.05029062 -6.18248128 139.29565721 C-6.18683809 127.42055438 -6.1947257 115.54545637 -6.20390756 103.6703564 C-6.21324379 91.49446826 -6.21881031 79.31858265 -6.22084326 67.14269108 C-6.22221855 59.62347546 -6.22656946 52.10427345 -6.23467123 44.58506202 C-6.24055902 38.82903584 -6.2412138 33.07301849 -6.23986244 27.3169899 C-6.24013896 24.9485624 -6.24214661 22.58013442 -6.24596024 20.21170998 C-6.25089079 16.99343069 -6.24975542 13.77521103 -6.24700928 10.55693054 C-6.24992212 9.60656105 -6.25283496 8.65619156 -6.25583607 7.67702299 C-6.23802894 0.02646537 -6.23802894 0.02646537 0 0 Z " fill="#113776" transform="translate(468.1267547607422,245.86447143554688)"/>
<path d="M0 0 C1.11433914 0.00303635 1.11433914 0.00303635 2.25119019 0.00613403 C3.41942825 0.00350555 3.41942825 0.00350555 4.61126709 0.00082397 C7.19829505 -0.00359493 9.78525522 -0.00065643 12.37228394 0.00271606 C14.16207899 0.00204304 15.95187396 0.00107302 17.7416687 -0.00018311 C21.49778105 -0.00166013 25.25386966 0.00049462 29.00997925 0.00515747 C33.83578887 0.01085476 38.66154288 0.00757578 43.48735046 0.00158501 C47.18466616 -0.00202048 50.88196858 -0.00088208 54.57928467 0.0017128 C56.35917162 0.0023821 58.13905975 0.00155353 59.91894531 -0.00076675 C62.40212216 -0.00329309 64.88520768 0.00054702 67.36837769 0.00613403 C68.11127045 0.0041098 68.85416321 0.00208557 69.61956787 0 C74.69552132 0.02126595 74.69552132 0.02126595 75.80978394 1.13552856 C75.91633099 3.56743454 75.95756956 5.97128042 75.95695496 8.40403748 C75.96063164 9.17386103 75.96430833 9.94368459 75.96809644 10.73683614 C75.97917733 13.33629294 75.98298453 15.93570983 75.98678589 18.53518677 C75.9930472 20.39089079 75.9996937 22.24659355 76.00669861 24.10229492 C76.024139 29.15812379 76.03466855 34.21394318 76.04290414 39.2697947 C76.04804765 42.4255485 76.05412365 45.58129931 76.06041527 48.73705101 C76.07947545 58.60205447 76.09370505 68.4670504 76.10202724 78.33206874 C76.11180498 89.73559851 76.1381351 101.13893445 76.17852813 112.54239589 C76.20864573 121.34580444 76.22349195 130.1491573 76.22680825 138.95261639 C76.22916367 144.2155463 76.23818772 149.47826934 76.26326942 154.74114418 C76.28647916 159.69137022 76.29081209 164.64125214 76.28050804 169.5915184 C76.28001084 171.4104279 76.28638526 173.22935392 76.30006409 175.04821205 C76.31767221 177.52791445 76.31073245 180.00636702 76.29753113 182.48606873 C76.30850037 183.20912447 76.31946962 183.93218021 76.33077127 184.67714673 C76.2868423 188.08517476 76.05689755 189.82372369 73.91078854 192.53165722 C71.80609505 194.1383446 69.78414182 195.4073799 67.42208862 196.60232544 C66.55811966 197.04415665 65.6941507 197.48598785 64.80400085 197.94120789 C63.87262802 198.40752121 62.94125519 198.87383453 61.98165894 199.35427856 C61.00786789 199.84955551 60.03407684 200.34483246 59.03077698 200.8551178 C55.87765083 202.45636522 52.71899275 204.04632038 49.55978394 205.63552856 C47.40595259 206.72492618 45.25238801 207.8148514 43.09909058 208.90530396 C38.89105824 211.03472247 34.68072044 213.15947604 30.46847534 215.2805481 C25.8268362 217.61924347 21.19621394 219.97843251 16.57150269 222.35037231 C14.46359676 223.4249187 12.35554475 224.49917862 10.24728394 225.57302856 C9.33623901 226.04353638 8.42519409 226.51404419 7.48654175 226.99880981 C3.27892945 229.12156917 -0.39773865 230.84025744 -5.19021606 231.13552856 C-7.07188382 229.25386081 -6.31578738 226.52157761 -6.32395947 224.01746607 C-6.32172875 223.13003387 -6.31949803 222.24260167 -6.31719971 221.32827759 C-6.3187597 220.39299524 -6.32031969 219.45771289 -6.32192695 218.49408865 C-6.32594125 215.33483943 -6.32274565 212.17563758 -6.3196106 209.01638794 C-6.32096445 206.76173372 -6.32274429 204.50707972 -6.32492065 202.25242615 C-6.32949692 196.11004664 -6.32770464 189.96768385 -6.32454157 183.82530403 C-6.32201896 177.41288328 -6.32435523 171.00046401 -6.32592773 164.58804321 C-6.3278666 153.12631465 -6.32474877 141.66459539 -6.3196684 130.2028684 C-6.31520035 119.80037243 -6.31597628 109.39788762 -6.32058716 98.99539185 C-6.32593282 86.92942344 -6.32793381 74.86346348 -6.32497489 62.79749346 C-6.32341166 56.40517948 -6.32321961 50.01287319 -6.32651138 43.62055969 C-6.3293889 37.61245644 -6.32741662 31.60437437 -6.32161713 25.59627342 C-6.32028888 23.38426435 -6.32068472 21.17225351 -6.32287979 18.96024513 C-6.32558879 15.95439877 -6.32221326 12.94862144 -6.31719971 9.94277954 C-6.32054579 8.61163124 -6.32054579 8.61163124 -6.32395947 7.25359106 C-6.30037373 0.02639571 -6.30037373 0.02639571 0 0 Z " fill="#113777" transform="translate(361.1902160644531,314.8644714355469)"/>
<path d="M0 0 C16.10793547 -0.54726848 31.8753857 3.92781969 44.26171875 14.5078125 C51.65817275 21.60793421 56.13012029 29.30398861 58.88671875 39.1953125 C58.88671875 40.1853125 58.88671875 41.1753125 58.88671875 42.1953125 C50.30671875 42.1953125 41.72671875 42.1953125 32.88671875 42.1953125 C31.56671875 39.5553125 30.24671875 36.9153125 28.88671875 34.1953125 C22.24733583 27.14943675 14.64120821 24.14783361 4.96264648 23.72265625 C-6.28396919 23.57451783 -15.82311625 26.37833043 -24.11328125 34.1953125 C-33.13473013 43.57858419 -34.44555677 57.81143682 -34.32421875 70.17578125 C-33.82353729 82.99260841 -30.17693777 93.5673981 -20.92578125 102.5703125 C-11.38700013 110.39781727 -0.98736132 111.20032868 10.88671875 110.1953125 C17.53030141 109.03532188 23.94333982 105.78688162 28.88671875 101.1953125 C29.18666748 100.5441748 29.48661621 99.89303711 29.7956543 99.22216797 C30.94526102 96.75093808 31.89761844 95.07558747 33.88671875 93.1953125 C38.34792154 92.1763009 42.65285535 92.44097049 47.19921875 92.6953125 C48.41673828 92.73140625 49.63425781 92.7675 50.88867188 92.8046875 C53.89122127 92.89888513 56.88736514 93.03028617 59.88671875 93.1953125 C58.57866882 104.3546135 53.2906475 112.78435516 44.88671875 120.1953125 C27.92279695 131.93645169 9.00725809 135.50249996 -11.34521484 132.91113281 C-25.57804727 130.23327834 -39.29470366 122.06880389 -48.109375 110.59765625 C-60.4945848 92.08642869 -63.13654949 70.29033414 -59.4609375 48.48828125 C-55.54896852 32.45424531 -46.23519599 18.01161068 -32.11328125 9.1953125 C-21.79647635 3.24657821 -11.76844424 0.73829638 0 0 Z " fill="#113575" transform="translate(416.11328125,593.8046875)"/>
<path d="M0 0 C7.30879916 7.09312968 11.76197244 14.80031287 14.5 24.625 C14.5 25.615 14.5 26.605 14.5 27.625 C5.92 27.625 -2.66 27.625 -11.5 27.625 C-12.82 24.985 -14.14 22.345 -15.5 19.625 C-20.12614474 13.87108863 -27.15031961 10.30460553 -34.41796875 9.38134766 C-46.272514 8.38883531 -56.28385383 10.2540948 -65.875 17.75 C-74.12404447 25.65533429 -77.37230958 35.97069216 -77.8359375 47.11328125 C-78.05909732 61.54019568 -77.31746346 74.19401824 -67.5 85.625 C-59.24679307 93.57582651 -50.04075519 96.23510233 -38.83276367 96.09765625 C-30.0233292 95.73724804 -22.7351704 93.32370359 -16.03515625 87.48046875 C-13.81611922 84.79842654 -12.22706782 81.64736868 -10.5 78.625 C-1.92 78.625 6.66 78.625 15.5 78.625 C13.81826148 90.39716961 8.46654603 99.29827173 -1.0390625 106.56640625 C-17.75657966 117.71944724 -37.81313869 121.81725474 -57.65234375 117.9375 C-73.36528877 113.77053116 -86.74185887 104.43673846 -95.5 90.625 C-106.08047117 70.75912689 -107.33735447 48.09732012 -100.8125 26.5625 C-95.43077826 11.40130629 -85.7657314 -0.68717951 -71.296875 -7.9921875 C-47.61910619 -18.04631546 -20.24845408 -17.33849661 0 0 Z " fill="#113575" transform="translate(595.5,608.375)"/>
<path d="M0 0 C0 6.27 0 12.54 0 19 C-15.00626511 26.01517061 -30.04070927 32.95140225 -45.16625977 39.70654297 C-55.99938298 44.54532177 -66.81502273 49.42223735 -77.625 54.3125 C-78.51699097 54.71597656 -79.40898193 55.11945313 -80.32800293 55.53515625 C-94.21204094 61.81706097 -108.08062175 68.13227794 -121.93212891 74.4855957 C-132.59822575 79.37554597 -143.29557754 84.19460107 -154 89 C-155.59115551 89.71449669 -157.18230153 90.42901449 -158.7734375 91.14355469 C-159.54974014 91.49217056 -160.32604279 91.84078644 -161.12586975 92.19996643 C-181.67031821 101.42646075 -202.18285937 110.71835082 -222.6580658 120.09744263 C-233.75114768 125.17754854 -244.85657453 130.23046054 -255.97070312 135.26434326 C-260.08094566 137.12678122 -264.1867478 138.99865421 -268.28985596 140.87675476 C-270.98715675 142.10973818 -273.68723971 143.33653699 -276.38800049 144.56192017 C-277.65820966 145.13982082 -278.92724217 145.72031568 -280.19500732 146.30355835 C-281.93543792 147.10381362 -283.68050701 147.89395778 -285.42578125 148.68359375 C-286.40973877 149.13275146 -287.39369629 149.58190918 -288.4074707 150.04467773 C-291 151 -291 151 -295 151 C-295 148.03 -295 145.06 -295 142 C-279.89371405 133.84886154 -264.49454058 126.38073767 -249 119 C-247.01278195 118.04997869 -245.02579133 117.09948146 -243.0390625 116.1484375 C-239.26623577 114.34246889 -235.49280584 112.53777365 -231.71875 110.734375 C-215.44548618 102.9558892 -199.19369627 95.13302486 -182.95214844 87.28857422 C-165.59537776 78.90557417 -148.23133582 70.53812569 -130.83789062 62.23144531 C-122.46809322 58.23087801 -114.11391375 54.19815308 -105.7612915 50.16189575 C-96.33061121 45.6047999 -86.89265062 41.06315574 -77.44702148 36.53710938 C-71.95228945 33.90263093 -66.46297249 31.25749965 -60.98046875 28.59765625 C-47.49584254 22.05799076 -33.9764209 15.61156673 -20.36010742 9.34985352 C-14.46089064 6.63244413 -8.61517536 3.84763288 -2.8347168 0.88500977 C-1 0 -1 0 0 0 Z " fill="#96B216" transform="translate(651,427)"/>
<path d="M0 0 C5.94 0 11.88 0 18 0 C22.24804688 11.328125 26.49609375 22.65625 30.74414062 33.984375 C31.43438828 35.8247937 31.43438828 35.8247937 32.13858032 37.70239258 C33.0636301 40.16951722 33.98825244 42.63680218 34.91244507 45.10424805 C37.16486664 51.11630003 39.42413355 57.12557522 41.69970703 63.12890625 C42.33097252 64.79874573 42.33097252 64.79874573 42.97499084 66.50231934 C43.7682239 68.59977642 44.56403113 70.69626233 45.36277771 72.79162598 C45.88618492 74.17771057 45.88618492 74.17771057 46.42016602 75.59179688 C46.88012718 76.80264954 46.88012718 76.80264954 47.34938049 78.03796387 C48 80 48 80 48 82 C42.39 82 36.78 82 31 82 C28.84370792 76.6811462 26.81672901 71.45018704 25 66 C14.44 65.67 3.88 65.34 -7 65 C-7.99 68.3 -8.98 71.6 -10 75 C-10.99 77.31 -11.98 79.62 -13 82 C-18.61 82 -24.22 82 -30 82 C-25.6177938 68.56836682 -20.98301251 55.26115045 -16.02050781 42.03295898 C-14.99680822 39.30399139 -13.9784325 36.57308319 -12.9609375 33.84179688 C-8.73654447 22.52281442 -4.40187749 11.251153 0 0 Z " fill="#103372" transform="translate(293,754)"/>
<path d="M0 0 C7.92 0 15.84 0 24 0 C24 42.24 24 84.48 24 128 C16.08 128 8.16 128 0 128 C0 85.76 0 43.52 0 0 Z " fill="#103473" transform="translate(629,597)"/>
<path d="M0 0 C6.19465206 3.58848776 9.58280328 8.57419198 11.4140625 15.3984375 C11.6751246 18.58659502 11.64748901 21.7561222 11.609375 24.953125 C11.6065451 25.85467316 11.60371521 26.75622131 11.60079956 27.68508911 C11.58965689 30.54801026 11.5645633 33.41061184 11.5390625 36.2734375 C11.52902505 38.22134963 11.51990054 40.16926669 11.51171875 42.1171875 C11.48973693 46.8777262 11.455248 51.63802777 11.4140625 56.3984375 C6.4640625 56.3984375 1.5140625 56.3984375 -3.5859375 56.3984375 C-3.5859375 54.7484375 -3.5859375 53.0984375 -3.5859375 51.3984375 C-4.59914063 52.03072266 -4.59914063 52.03072266 -5.6328125 52.67578125 C-6.52484375 53.22363281 -7.416875 53.77148438 -8.3359375 54.3359375 C-9.21765625 54.88121094 -10.099375 55.42648437 -11.0078125 55.98828125 C-16.64629581 59.07236076 -22.76554608 59.18480656 -28.99609375 57.90234375 C-35.50319751 55.97954347 -38.97919201 53.12990483 -42.4609375 47.2109375 C-44.10331326 41.64510854 -44.28382377 36.53074492 -41.453125 31.30859375 C-37.48083818 26.17500996 -32.4516472 24.06403858 -26.12866211 22.9753418 C-23.53303947 22.66349058 -20.94165382 22.42163711 -18.3359375 22.2109375 C-17.00949219 22.0881543 -17.00949219 22.0881543 -15.65625 21.96289062 C-11.93788953 21.62868753 -8.32453362 21.3984375 -4.5859375 21.3984375 C-4.75381379 17.03365407 -4.92224502 15.02975474 -8.1484375 11.9609375 C-12.21925155 10.11056748 -15.19509408 9.51677709 -19.5859375 10.3984375 C-24.31017006 12.8339442 -24.31017006 12.8339442 -26.5859375 17.3984375 C-31.2059375 17.3984375 -35.8259375 17.3984375 -40.5859375 17.3984375 C-40.14890861 7.78380182 -40.14890861 7.78380182 -36.25 3.6796875 C-26.04871319 -4.17482441 -11.61272223 -4.83007031 0 0 Z " fill="#113272" transform="translate(459.5859375,779.6015625)"/>
<path d="M0 0 C5.94 0 11.88 0 18 0 C19.60681641 3.88072266 19.60681641 3.88072266 21.24609375 7.83984375 C22.28138617 10.33545316 23.31753073 12.83070711 24.35375977 15.32592773 C25.07535652 17.06481498 25.79606206 18.80407233 26.51586914 20.54370117 C27.54862019 23.03922005 28.58453336 25.53340518 29.62109375 28.02734375 C29.94403915 28.80963852 30.26698456 29.59193329 30.59971619 30.39793396 C31.88140773 33.95663081 31.88140773 33.95663081 34 37 C34.31751221 36.12786865 34.63502441 35.2557373 34.9621582 34.35717773 C36.15150452 31.09325397 37.34262282 27.82998797 38.53491211 24.56713867 C39.0486346 23.1601681 39.56166843 21.75294588 40.07397461 20.34545898 C40.81439137 18.31165599 41.55735608 16.27879871 42.30078125 14.24609375 C42.74591064 13.02591553 43.19104004 11.8057373 43.6496582 10.54858398 C45.00236704 6.99377961 46.50173607 3.49594916 48 0 C53.61 0 59.22 0 65 0 C59.76768383 14.19837252 54.10168157 28.2022622 48.39160156 42.21411133 C47.16802066 45.21879578 45.94649635 48.22430176 44.7265625 51.23046875 C44.33092102 52.20523163 43.93527954 53.17999451 43.52764893 54.18429565 C40.38457779 61.96567986 37.37451962 69.79375597 34.4425354 77.6570282 C34.13456024 78.47830704 33.82658508 79.29958588 33.50927734 80.14575195 C33.24061859 80.86873978 32.97195984 81.5917276 32.69515991 82.33662415 C32 84 32 84 31 85 C28.13732433 85.07325168 25.299281 85.09238205 22.4375 85.0625 C21.63119141 85.05798828 20.82488281 85.05347656 19.99414062 85.04882812 C17.99606244 85.03700518 15.99802217 85.01906914 14 85 C14.91190497 82.35243591 15.82838268 79.70668689 16.75 77.0625 C17.02078369 76.28358398 17.29156738 75.50466797 17.57055664 74.70214844 C19.25126566 69.93142477 21.07170068 65.34234067 23.43359375 60.859375 C24.90142929 56.04082522 21.87154539 51.1082746 19.90234375 46.77734375 C19.59201202 46.08289658 19.2816803 45.3884494 18.96194458 44.67295837 C18.29956707 43.19096378 17.63512087 41.70989233 16.96878052 40.22967529 C15.24552079 36.39947265 13.5391491 32.56180894 11.8359375 28.72265625 C11.33426811 27.59192688 11.33426811 27.59192688 10.82246399 26.43835449 C6.96911566 17.71814215 3.45535729 8.88520445 0 0 Z " fill="#103272" transform="translate(507,778)"/>
<path d="M0 0 C6.54050991 3.32762785 10.10167465 8.02112388 12.5625 14.8125 C13.06389548 18.22451641 13.03215755 21.5574194 12.953125 25 C12.94746521 25.94311035 12.94180542 26.8862207 12.93597412 27.85791016 C12.91374585 30.84330978 12.8635756 33.82746874 12.8125 36.8125 C12.79241746 38.84763881 12.77416978 40.88279659 12.7578125 42.91796875 C12.71392557 47.88328391 12.64499314 52.84768227 12.5625 57.8125 C7.2825 57.8125 2.0025 57.8125 -3.4375 57.8125 C-3.46328125 55.21117187 -3.4890625 52.60984375 -3.515625 49.9296875 C-3.55408767 47.39767852 -3.59923412 44.86587029 -3.64501953 42.33398438 C-3.67316584 40.58050188 -3.69441185 38.82689401 -3.70849609 37.07324219 C-3.73001427 34.54557401 -3.77670702 32.01940316 -3.828125 29.4921875 C-3.82935364 28.71382538 -3.83058228 27.93546326 -3.83184814 27.1335144 C-3.96958971 21.96215589 -4.96637347 18.88212381 -8.4375 14.8125 C-13.2131793 13.2206069 -17.03136321 13.28188234 -21.75 15.0625 C-24.71952206 16.99614227 -25.28246129 17.55314772 -26.4375 20.8125 C-26.6740356 23.6690386 -26.80968519 26.43760746 -26.8515625 29.296875 C-26.87092865 30.11246887 -26.8902948 30.92806274 -26.9102478 31.76837158 C-26.96989575 34.36630892 -27.01636942 36.96429093 -27.0625 39.5625 C-27.10069342 41.32684194 -27.13974595 43.09116551 -27.1796875 44.85546875 C-27.27719824 49.17438207 -27.35688263 53.49310619 -27.4375 57.8125 C-32.7175 57.8125 -37.9975 57.8125 -43.4375 57.8125 C-43.4375 38.6725 -43.4375 19.5325 -43.4375 -0.1875 C-38.1575 -0.1875 -32.8775 -0.1875 -27.4375 -0.1875 C-27.1075 1.4625 -26.7775 3.1125 -26.4375 4.8125 C-25.96699219 4.46316406 -25.49648438 4.11382813 -25.01171875 3.75390625 C-24.38910156 3.29886719 -23.76648438 2.84382812 -23.125 2.375 C-22.51011719 1.92253906 -21.89523437 1.47007812 -21.26171875 1.00390625 C-15.43002289 -2.80480304 -6.39607621 -2.16050666 0 0 Z " fill="#0F3272" transform="translate(393.4375,778.1875)"/>
<path d="M0 0 C6.53282325 3.50149428 10.98248872 8.43211097 14.0625 15.10546875 C14.0625 16.09546875 14.0625 17.08546875 14.0625 18.10546875 C11.47804227 18.21365535 8.89812648 18.29284112 6.3125 18.35546875 C5.58289063 18.38898437 4.85328125 18.4225 4.1015625 18.45703125 C0.49108741 18.52267625 -1.44675184 18.51717022 -4.265625 16.15234375 C-5.09320312 15.13914062 -5.09320312 15.13914062 -5.9375 14.10546875 C-10.69714463 12.51892054 -15.06799999 12.34067329 -19.6875 14.23046875 C-23.5823445 17.4761725 -25.67258076 20.00217051 -26.32421875 25.17578125 C-26.49265373 30.2752955 -26.42174963 34.06522881 -24.25 38.73046875 C-20.53493785 42.54593798 -18.37472097 43.94577753 -13 44.54296875 C-8.76398463 44.39053638 -6.20519325 42.81526316 -2.9375 40.10546875 C-2.4425 39.11546875 -2.4425 39.11546875 -1.9375 38.10546875 C3.3425 38.10546875 8.6225 38.10546875 14.0625 38.10546875 C12.87549232 45.22751482 10.64443983 49.47246272 4.87890625 53.9375 C-3.20454406 59.13524547 -11.19326062 60.3144361 -20.57421875 58.6328125 C-29.29334364 56.40295973 -35.33216885 51.94658397 -39.9296875 44.23046875 C-44.10182509 35.43340344 -44.67523567 24.90840906 -41.4375 15.66796875 C-37.63614471 7.62355139 -31.11423462 2.31451981 -22.9375 -0.89453125 C-15.81782543 -3.26775611 -6.97848882 -2.73238625 0 0 Z " fill="#113372" transform="translate(694.9375,778.89453125)"/>
<path d="M0 0 C3.04704584 2.8068846 5.52333864 6.10698369 7 10 C7 10.99 7 11.98 7 13 C4.73020335 13.10794277 2.45894804 13.18556176 0.1875 13.25 C-1.07707031 13.29640625 -2.34164062 13.3428125 -3.64453125 13.390625 C-7 13 -7 13 -8.67578125 11.04296875 C-9.11277344 10.36878906 -9.54976562 9.69460938 -10 9 C-14.28511036 7.53150712 -17.97899044 7.52075061 -22.0625 9.4375 C-22.701875 9.953125 -23.34125 10.46875 -24 11 C-23.96906827 13.41585574 -23.96906827 13.41585574 -23 16 C-18.80402889 18.52882187 -14.92071753 19.55257183 -10.125 20.375 C-3.27673017 21.75622443 1.82221085 23.68212269 6.68359375 28.7578125 C8.44637839 31.76030028 8.3990233 33.97414094 8.375 37.4375 C8.38273438 38.54996094 8.39046875 39.66242187 8.3984375 40.80859375 C7.6657911 46.67694772 4.37091399 50.11411867 -0.0625 53.70703125 C-6.3966527 57.93405654 -14.68609795 57.6255311 -22 57 C-28.14061639 55.73303547 -33.39782618 53.58654878 -37.1875 48.36328125 C-39.45833702 44.72836505 -40.19515386 42.21387773 -40 38 C-37.75165504 37.86473861 -35.50097486 37.76789196 -33.25 37.6875 C-31.99703125 37.62949219 -30.7440625 37.57148437 -29.453125 37.51171875 C-26 38 -26 38 -23.671875 40.45703125 C-22.84429688 41.71580078 -22.84429688 41.71580078 -22 43 C-18.83013832 44.58493084 -15.45967739 44.2940042 -12 44 C-9.59442147 43.13734032 -9.59442147 43.13734032 -8 42 C-7.7497843 39.08365871 -7.7497843 39.08365871 -8 36 C-11.51073879 33.65950748 -14.62184787 33.30449194 -18.6875 32.6875 C-26.36133893 31.38105896 -31.6922404 29.44459138 -37.171875 23.73828125 C-40.4109352 18.88661202 -39.67988654 13.61614614 -39 8 C-36.62091862 2.44881012 -32.301958 -0.40079793 -27 -3 C-18.44113651 -5.88336979 -7.47529044 -5.18498869 0 0 Z " fill="#103271" transform="translate(756,781)"/>
<path d="M0 0 C5.28 0 10.56 0 16 0 C16 5.61 16 11.22 16 17 C20.29 17 24.58 17 29 17 C29 21.29 29 25.58 29 30 C24.71 30 20.42 30 16 30 C16.09686684 34.09389873 16.19954872 38.18698762 16.31738281 42.28027344 C16.35569327 43.67308572 16.39054259 45.06599765 16.421875 46.45898438 C16.46747907 48.45986308 16.52651623 50.46042146 16.5859375 52.4609375 C16.63306885 54.26763916 16.63306885 54.26763916 16.68115234 56.11083984 C16.70915226 59.1260018 16.70915226 59.1260018 19 61 C21.43252661 61.46162427 21.43252661 61.46162427 24.125 61.625 C26.538125 61.810625 26.538125 61.810625 29 62 C29 66.29 29 70.58 29 75 C26.29105233 75.08144943 23.58458737 75.14070614 20.875 75.1875 C20.11445312 75.21263672 19.35390625 75.23777344 18.5703125 75.26367188 C13.60995596 75.32781442 10.30690867 74.73247982 6 72 C1.02568888 66.61116295 -0.30209812 62.64433751 -0.1953125 55.390625 C-0.1924826 54.66381531 -0.18965271 53.93700562 -0.18673706 53.18817139 C-0.17557523 50.87527749 -0.15047851 48.56277612 -0.125 46.25 C-0.11496501 44.67839102 -0.10584006 43.10677596 -0.09765625 41.53515625 C-0.07564904 37.68995378 -0.04114715 33.84504336 0 30 C-2.97 30 -5.94 30 -9 30 C-9 25.71 -9 21.42 -9 17 C-6.03 17 -3.06 17 0 17 C0 11.39 0 5.78 0 0 Z " fill="#103272" transform="translate(586,761)"/>
<path d="M0 0 C5.28 0 10.56 0 16 0 C16 27.06 16 54.12 16 82 C10.72 82 5.44 82 0 82 C0 54.94 0 27.88 0 0 Z " fill="#0E3070" transform="translate(483,754)"/>
<path d="M0 0 C5.28 0 10.56 0 16 0 C16 19.14 16 38.28 16 58 C10.72 58 5.44 58 0 58 C0 38.86 0 19.72 0 0 Z " fill="#143573" transform="translate(626,778)"/>
<path d="M0 0 C2.87632098 5.41076417 4.62795232 11.28666367 6.625 17.0625 C7.04523438 18.25939453 7.46546875 19.45628906 7.8984375 20.68945312 C8.29546875 21.83478516 8.6925 22.98011719 9.1015625 24.16015625 C9.46588379 25.20824463 9.83020508 26.25633301 10.20556641 27.33618164 C11 30 11 30 11 33 C3.74 33 -3.52 33 -11 33 C-9.10000908 25.51180049 -6.80856087 18.20541304 -4.375 10.875 C-4.06167725 9.9260083 -3.74835449 8.9770166 -3.42553711 7.99926758 C-3.12784424 7.11005615 -2.83015137 6.22084473 -2.5234375 5.3046875 C-2.25450684 4.50015137 -1.98557617 3.69561523 -1.70849609 2.86669922 C-1 1 -1 1 0 0 Z " fill="#F5F6F9" transform="translate(302,773)"/>
<path d="M0 0 C1.60294922 0.01353516 1.60294922 0.01353516 3.23828125 0.02734375 C4.04652344 0.03894531 4.85476563 0.05054688 5.6875 0.0625 C5.33356658 5.96139027 3.97314461 8.96732848 -0.3125 13.0625 C-4.35097134 14.95284829 -7.87829398 15.53422404 -12.3125 15.0625 C-15.1875 14 -15.1875 14 -17.3125 12.0625 C-18 8.625 -18 8.625 -17.3125 5.0625 C-11.96792148 0.3393841 -6.88694179 -0.07568068 0 0 Z " fill="#F8F9FB" transform="translate(449.3125,810.9375)"/>
<path d="M0 0 C2.4375 1.625 2.4375 1.625 4 4 C4.55437355 7.88061483 4.61242231 10.03033134 2.5 13.375 C-0.92566523 15.6016824 -3.91933033 16.32386267 -8 16 C-10.9375 14.5 -10.9375 14.5 -13 12 C-14.0625 8.5625 -14.0625 8.5625 -14 5 C-10.27541758 -1.11895684 -6.75661785 -1.54098302 0 0 Z " fill="#113170" transform="translate(638,753)"/>
<path d="M0 0 C0.33 0.66 0.66 1.32 1 2 C0.38125 2.0825 -0.2375 2.165 -0.875 2.25 C-3.67505419 3.23825442 -3.74113932 4.40359985 -5 7 C-6.32407669 7.68486725 -7.65909241 8.34870203 -9 9 C-10.70496537 10.62746694 -12.37897032 12.28891311 -14 14 C-14.66 13.67 -15.32 13.34 -16 13 C-11.09885895 7.74691531 -6.30115509 3.48574537 0 0 Z " fill="#09195B" transform="translate(386,602)"/>
</svg>
