<?xml version="1.0" encoding="UTF-8"?>
<svg version="1.1" xmlns="http://www.w3.org/2000/svg" width="1536" height="1024">
<path d="M0 0 C506.88 0 1013.76 0 1536 0 C1536 337.92 1536 675.84 1536 1024 C1029.12 1024 522.24 1024 0 1024 C0 686.08 0 348.16 0 0 Z " fill="#FEFEFE" transform="translate(0,0)"/>
<path d="M0 0 C1.64510941 0.00015915 3.29022379 0.00585551 4.93530273 0.01586914 C6.23164894 0.01799156 6.23164894 0.01799156 7.55418396 0.02015686 C10.32578941 0.025773 13.09731528 0.0383282 15.86889648 0.05102539 C17.74324428 0.05603831 19.61759334 0.06060158 21.49194336 0.06469727 C26.09679192 0.07574767 30.70158069 0.09302309 35.30639648 0.11352539 C36.58043571 2.66160384 36.42939997 4.43590366 36.426651 7.28933716 C36.42802567 8.38592651 36.42940033 9.48251587 36.43081665 10.61233521 C36.42542374 12.42494339 36.42542374 12.42494339 36.41992188 14.27416992 C36.4200679 15.54242615 36.42021393 16.81068237 36.42036438 18.11737061 C36.42065197 21.60062624 36.41476148 25.08384762 36.40779042 28.56709528 C36.40155045 32.20528141 36.40095257 35.84346828 36.39976501 39.48165894 C36.3966536 46.37354716 36.38844276 53.26541958 36.37841552 60.15730083 C36.3672485 68.00241946 36.36174245 75.84753884 36.35672009 83.69266343 C36.34626 99.83296002 36.32866422 115.97324069 36.30639648 132.11352539 C30.95337646 134.82706935 25.59648961 137.53276109 20.23583984 140.23120117 C18.41215896 141.15059225 16.58956011 142.07213287 14.76806641 142.99584961 C12.15213922 144.32197442 9.53243868 145.64036101 6.91186523 146.95727539 C6.09614548 147.3728772 5.28042572 147.788479 4.43998718 148.2166748 C3.29914421 148.78726624 3.29914421 148.78726624 2.13525391 149.36938477 C1.46684982 149.70691772 0.79844574 150.04445068 0.10978699 150.39221191 C-1.69360352 151.11352539 -1.69360352 151.11352539 -4.69360352 151.11352539 C-4.71693109 131.57322744 -4.73458199 112.0329323 -4.74541569 92.49262333 C-4.75057895 83.42037046 -4.75762221 74.34812623 -4.76904297 65.27587891 C-4.7789889 57.37143827 -4.78545672 49.46700388 -4.78769201 41.56255716 C-4.78899927 37.3745782 -4.7920861 33.18661712 -4.79933357 28.99864388 C-4.80609235 25.06137241 -4.80822077 21.12412631 -4.8067112 17.18684959 C-4.80698759 15.73757922 -4.80899356 14.28830804 -4.81280899 12.83904266 C-4.81774395 10.86882125 -4.81600161 8.89858641 -4.81385803 6.92835999 C-4.81477983 5.8231302 -4.81570162 4.71790041 -4.81665134 3.57917881 C-4.61848601 -0.39169196 -4.15639638 0.12774964 0 0 Z " fill="#89B844" transform="translate(485.693603515625,385.886474609375)"/>
<path d="M0 0 C1.2219104 0.00607269 1.2219104 0.00607269 2.46850586 0.01226807 C3.30438232 0.01035461 4.14025879 0.00844116 5.00146484 0.00646973 C6.77010397 0.00510771 8.53875309 0.0088053 10.30737305 0.01715088 C13.02016579 0.02785031 15.7322963 0.01725631 18.44506836 0.00445557 C20.16121566 0.00577716 21.87736255 0.00833955 23.59350586 0.01226807 C24.40811279 0.0082196 25.22271973 0.00417114 26.06201172 0 C31.80108658 0.04797379 31.80108658 0.04797379 34.03100586 2.27789307 C34.29944801 4.16546345 34.29944801 4.16546345 34.3253479 6.50892639 C34.33965851 7.39635025 34.35396912 8.28377411 34.36871338 9.1980896 C34.37678009 10.66228836 34.37678009 10.66228836 34.38500977 12.15606689 C34.39815216 13.18220596 34.41129456 14.20834503 34.42483521 15.26557922 C34.46435865 18.6720303 34.48763755 22.0783049 34.50756836 25.48492432 C34.51571941 26.64630102 34.52387047 27.80767773 34.53226852 29.00424767 C34.57401297 35.15022449 34.6026071 41.29611168 34.62133789 47.44219971 C34.64348234 53.79836687 34.71229023 60.15313651 34.79168129 66.50880909 C34.84391062 71.38926337 34.86071203 76.26938197 34.86790085 81.15009117 C34.87765856 83.49335872 34.90096084 85.83661 34.93797684 88.17960548 C34.98655488 91.45804958 34.98487333 94.73284371 34.97094727 98.01153564 C34.99656738 98.98159546 35.0221875 99.95165527 35.04858398 100.95111084 C34.94883347 107.38595912 34.94883347 107.38595912 32.30004025 109.96002483 C30.25588233 111.25894454 28.24239673 112.29609892 26.03100586 113.27789307 C24.96986572 113.84854492 23.90872559 114.41919678 22.81542969 115.00714111 C21.79989014 115.51285645 20.78435059 116.01857178 19.73803711 116.53961182 C18.05097656 117.38169189 18.05097656 117.38169189 16.32983398 118.24078369 C14.60410156 119.09446533 14.60410156 119.09446533 12.84350586 119.96539307 C11.68141602 120.54611572 10.51932617 121.12683838 9.32202148 121.72515869 C-3.851626 128.27789307 -3.851626 128.27789307 -7.96899414 128.27789307 C-8.01566928 111.88408415 -8.05096092 95.49029671 -8.07261848 79.09643745 C-8.08294076 71.48486233 -8.09701919 63.87332844 -8.11987305 56.26177979 C-8.13977789 49.62926039 -8.15270365 42.99677084 -8.15717113 36.36422241 C-8.15978346 32.85079051 -8.16594315 29.33744404 -8.18045425 25.82403946 C-8.19650416 21.90645978 -8.1969757 17.98896445 -8.19604492 14.0713501 C-8.20323547 12.9003476 -8.21042603 11.72934509 -8.21783447 10.52285767 C-8.21508514 9.45992493 -8.21233582 8.39699219 -8.20950317 7.30184937 C-8.21134676 6.37452562 -8.21319035 5.44720188 -8.2150898 4.49177742 C-7.65834148 -0.5167481 -4.22446265 0.03531292 0 0 Z " fill="#0B3F88" transform="translate(427.968994140625,437.72210693359375)"/>
<path d="M0 0 C1.18722656 -0.00143509 1.18722656 -0.00143509 2.3984375 -0.00289917 C4.07291747 -0.00358009 5.74740009 -0.00173194 7.421875 0.00244141 C9.98964346 0.00779092 12.557237 0.00249347 15.125 -0.00390625 C16.75000039 -0.00324545 18.37500067 -0.00196426 20 0 C20.77085937 -0.00202423 21.54171875 -0.00404846 22.3359375 -0.00613403 C27.77007868 0.01785184 27.77007868 0.01785184 30 1.1328125 C30 34.1328125 30 67.1328125 30 101.1328125 C-8 120.1328125 -8 120.1328125 -10 120.1328125 C-10 80.8628125 -10 41.5928125 -10 1.1328125 C-6.84546335 -0.44445582 -3.46259198 -0.00909256 0 0 Z " fill="#0D3E87" transform="translate(372,475.8671875)"/>
<path d="M0 0 C5.28 0 10.56 0 16 0 C16.7206665 1.78913818 17.44133301 3.57827637 18.18383789 5.42163086 C20.59405561 11.40483071 23.00488151 17.38778523 25.4161005 23.37058163 C26.87466243 26.98967542 28.33299757 30.6088602 29.79077148 34.22827148 C31.19976974 37.72655533 32.60942301 41.22457462 34.01948166 44.72243118 C34.5710068 46.09090584 35.12229973 47.45947409 35.67335892 48.82813644 C38.21008674 55.1282107 40.74806656 61.42688509 43.37060547 67.69189453 C43.87363441 68.89502037 43.87363441 68.89502037 44.38682556 70.12245178 C44.97621839 71.52530018 45.57015434 72.92625402 46.16993713 74.32469177 C47.33097698 77.08351013 48 78.96619491 48 82 C43.05 82 38.1 82 33 82 C25 66.57142857 25 66.57142857 25 62 C14.11 62 3.22 62 -8 62 C-8.99 65.3 -9.98 68.6 -11 72 C-12.24674047 75.37745747 -13.62145077 78.67246738 -15 82 C-19.95 82 -24.9 82 -30 82 C-28.77955365 76.00280818 -27.2297942 70.46871455 -24.98046875 64.78515625 C-24.68522308 64.02344116 -24.38997742 63.26172607 -24.08578491 62.47692871 C-23.12554153 60.00313011 -22.15652879 57.53286871 -21.1875 55.0625 C-20.51809109 53.34199069 -19.84939894 51.62120235 -19.18139648 49.90014648 C-17.8084017 46.36354019 -16.43277383 42.82797453 -15.05566406 39.29296875 C-12.14645514 31.81440264 -9.28419381 24.31793704 -6.42398071 16.82052612 C-5.32625487 13.94327814 -4.22701943 11.06660805 -3.12773132 8.18995667 C-2.08476765 5.46011877 -1.04244178 2.73003723 0 0 Z " fill="#083985" transform="translate(814,476)"/>
<path d="M0 0 C8.90331158 5.35145856 13.71461387 12.25396627 17 22 C17 22.33 17 22.66 17 23 C1.46858733 24.23292361 1.46858733 24.23292361 -1.99609375 21.32421875 C-3.125 19.1875 -3.125 19.1875 -4.06640625 16.98046875 C-4.95440873 14.64810848 -4.95440873 14.64810848 -8.0625 13 C-15.09151666 10.67736841 -22.67628076 11.02109349 -29.4375 13.9375 C-35.11086807 17.12990968 -37.54905736 21.75950314 -39.60546875 27.76953125 C-41.50547663 38.51115996 -40.77667323 50.31819351 -35.375 59.875 C-29.56370723 65.07457774 -23.35123837 66.6439596 -15.6484375 66.3203125 C-10.32754811 65.6767831 -6.36130234 64.43111272 -2.5625 60.4375 C-1.01468188 58.11785731 -1.01468188 58.11785731 0 56 C5.28 56 10.56 56 16 56 C14.77699113 64.56106209 11.96064319 68.76337321 5.4375 74.25 C-3.79707254 80.66338434 -15.01579526 82.25168845 -26 81 C-36.18226951 78.67635388 -45.26277257 72.83273714 -51 64 C-57.14679632 51.35753514 -60.07909684 36.59690904 -55.375 22.875 C-50.68116244 12.27283544 -44.08112111 4.19950101 -33.5625 -0.9375 C-23.40944657 -4.83658135 -9.87575897 -4.81172928 0 0 Z " fill="#073784" transform="translate(627,478)"/>
<path d="M0 0 C6.02968977 4.33316415 9.76557049 10.42462554 12.1875 17.375 C12.1875 18.365 12.1875 19.355 12.1875 20.375 C6.5775 20.375 0.9675 20.375 -4.8125 20.375 C-5.8025 18.395 -6.7925 16.415 -7.8125 14.375 C-10.35487951 10.81566869 -13.64311541 10.2492258 -17.8125 9.375 C-25.35943526 8.58914319 -31.51154332 9.82426075 -37.5625 14.5 C-42.845038 21.24990966 -44.49955328 27.8471193 -44.3125 36.3125 C-44.30041504 37.18914307 -44.28833008 38.06578613 -44.27587891 38.96899414 C-44.05632826 46.12168794 -43.25163171 52.4459098 -38.38671875 58.00390625 C-32.71111207 63.15154952 -27.11128334 63.76953997 -19.7578125 63.625 C-14.43400113 63.1731115 -11.15259233 61.82088909 -7.4375 57.8125 C-5.82412826 55.50161879 -5.82412826 55.50161879 -4.8125 53.375 C0.7975 53.375 6.4075 53.375 12.1875 53.375 C10.02395572 61.89395562 6.21028631 68.05608493 -1.2421875 72.98046875 C-12.10762623 78.7516753 -24.1202021 80.33411948 -36 76.8125 C-46.34623822 72.92253054 -53.02759355 66.32909295 -57.8125 56.375 C-60.41684317 49.54320813 -61.33459237 43.22251476 -61.25 35.9375 C-61.24242676 35.01880127 -61.23485352 34.10010254 -61.22705078 33.15356445 C-60.90651442 19.95191192 -55.96997457 11.18628784 -46.625 2.125 C-33.67342813 -8.82241849 -14.2629136 -8.54350898 0 0 Z " fill="#073884" transform="translate(709.8125,480.625)"/>
<path d="M0 0 C4.56238861 3.7512973 8.12202942 8.36608826 10 14 C10.08630926 15.45781722 10.11770981 16.91927474 10.11352539 18.37963867 C10.11344986 19.26032516 10.11337433 20.14101166 10.11329651 21.04838562 C10.10813522 21.99534805 10.10297394 22.94231049 10.09765625 23.91796875 C10.0962413 24.89034988 10.09482635 25.86273102 10.09336853 26.86457825 C10.08776817 29.97225004 10.07521562 33.07984996 10.0625 36.1875 C10.05748505 38.29361875 10.05292213 40.39973863 10.04882812 42.50585938 C10.03779862 47.67060064 10.02053375 52.83528813 10 58 C5.71 58 1.42 58 -3 58 C-3.495 55.03 -3.495 55.03 -4 52 C-4.99 52.78375 -5.98 53.5675 -7 54.375 C-13.20788805 58.77537044 -20.48634009 60.00948832 -28 59 C-34.56961217 57.18356749 -39.40793528 53.84993397 -43 48 C-44.6291876 42.84257177 -44.67154446 37.95127388 -42.5625 32.9375 C-39.37082075 27.10872406 -33.94119993 24.08282983 -27.859375 21.84375 C-23.01986627 20.78571975 -18.496112 20.78265017 -13.5625 20.875 C-12.64017578 20.88402344 -11.71785156 20.89304687 -10.76757812 20.90234375 C-8.51144191 20.9257234 -6.25586316 20.95849084 -4 21 C-4.29003906 19.71996094 -4.58007812 18.43992187 -4.87890625 17.12109375 C-5.12362671 16.04106079 -5.12362671 16.04106079 -5.37329102 14.93920898 C-6.24525566 12.24111191 -7.5150923 11.28010397 -10 10 C-14.89558597 8.36813801 -19.24506275 8.16068219 -23.875 10.375 C-26.05919833 11.97108919 -26.05919833 11.97108919 -28 14 C-31.0390625 14.1953125 -31.0390625 14.1953125 -34.625 14.125 C-35.81351563 14.10695313 -37.00203125 14.08890625 -38.2265625 14.0703125 C-39.14179687 14.04710937 -40.05703125 14.02390625 -41 14 C-40.21318411 8.13464521 -37.19639528 4.97235775 -33 1 C-23.66411404 -4.78824929 -9.75235809 -5.11129879 0 0 Z " fill="#083884" transform="translate(975,500)"/>
<path d="M0 0 C6.05045611 5.17569137 9.3745765 11.39940338 10.26213074 19.34735107 C10.34347056 21.78017285 10.33845247 24.19519426 10.29296875 26.62890625 C10.28872391 27.50401352 10.28447906 28.37912079 10.28010559 29.28074646 C10.26347981 32.04166072 10.22585966 34.80181105 10.1875 37.5625 C10.17243228 39.44855707 10.15874756 41.33462573 10.14648438 43.22070312 C10.11362937 47.81409083 10.06196135 52.40691647 10 57 C5.38 57 0.76 57 -4 57 C-4.029729 55.41916626 -4.029729 55.41916626 -4.06005859 53.80639648 C-4.13650687 49.87192111 -4.22516177 45.93779677 -4.31738281 42.00366211 C-4.35551129 40.30549076 -4.39039146 38.60724308 -4.421875 36.90893555 C-4.46787822 34.45854533 -4.52581151 32.00867333 -4.5859375 29.55859375 C-4.59748871 28.80726669 -4.60903992 28.05593964 -4.62094116 27.28184509 C-4.75067829 22.5792522 -5.36911742 18.46691113 -7 14 C-10.15558824 11.06981092 -12.74885343 9.75246273 -17 9.5 C-21.23842116 9.74312167 -23.79533437 11.16796991 -27 14 C-30.11190882 18.95694893 -30.46516237 23.00861371 -30.51171875 28.6796875 C-30.52966995 29.49245148 -30.54762115 30.30521545 -30.56611633 31.14260864 C-30.61998358 33.7200208 -30.65403836 36.2972503 -30.6875 38.875 C-30.72069399 40.63023362 -30.75518557 42.38544321 -30.79101562 44.140625 C-30.87569611 48.42695103 -30.94261897 52.71322512 -31 57 C-35.62 57 -40.24 57 -45 57 C-45 37.53 -45 18.06 -45 -2 C-40.38 -2 -35.76 -2 -31 -2 C-30.67 -0.02 -30.34 1.96 -30 4 C-28.700625 2.824375 -28.700625 2.824375 -27.375 1.625 C-19.85961798 -4.54460431 -8.3378665 -5.15494651 0 0 Z " fill="#073784" transform="translate(913,500)"/>
<path d="M0 0 C4.95 0 9.9 0 15 0 C16.49505392 4.05211167 17.98891194 8.10462818 19.47998047 12.15820312 C19.98550736 13.5314924 20.4916717 14.90454722 20.99853516 16.27734375 C24.14682902 24.80579129 27.1907569 33.3520978 30 42 C35.47662508 28.05309627 40.76237855 14.03825069 46 0 C50.62 0 55.24 0 60 0 C57.64837312 8.56847323 54.45752155 16.70687529 51.16067505 24.94354248 C49.48679057 29.12570788 47.82649557 33.31327265 46.1640625 37.5 C45.82232498 38.35951263 45.48058746 39.21902527 45.12849426 40.10458374 C41.39235612 49.5095963 37.72367111 58.94060467 34.0625 68.375 C33.44751435 69.9588234 32.83252425 71.54264506 32.2175293 73.12646484 C30.81065491 76.75057725 29.40493765 80.37513638 28 84 C23.38 84 18.76 84 14 84 C14.391875 82.80375 14.78375 81.6075 15.1875 80.375 C15.58388672 79.14716797 15.58388672 79.14716797 15.98828125 77.89453125 C16.72660016 75.78219801 17.54867051 73.69860795 18.41796875 71.63671875 C18.89878906 70.45722656 19.37960937 69.27773438 19.875 68.0625 C20.34679688 66.96035156 20.81859375 65.85820313 21.3046875 64.72265625 C22.86876293 56.34870186 17.59410445 47.08700413 14.55078125 39.375 C14.13330124 38.30628662 13.71582123 37.23757324 13.28569031 36.13647461 C11.96499818 32.75618561 10.63930574 29.37789358 9.3125 26 C7.97519484 22.59346183 6.63907866 19.18648586 5.30717468 15.77783203 C4.48129807 13.66426835 3.65229721 11.55192232 2.81990051 9.44091797 C2.4491893 8.4923291 2.07847809 7.54374023 1.6965332 6.56640625 C1.36804886 5.73052979 1.03956451 4.89465332 0.7011261 4.03344727 C0 2 0 2 0 0 Z " fill="#073884" transform="translate(1018,498)"/>
<path d="M0 0 C3.24748657 3.34300088 5.125 6.48126331 5.125 11.1875 C3.23045628 11.29627763 1.33408246 11.37344173 -0.5625 11.4375 C-2.14611328 11.50710938 -2.14611328 11.50710938 -3.76171875 11.578125 C-6.875 11.1875 -6.875 11.1875 -9.35546875 9.1953125 C-12.58215174 6.62397132 -14.42796451 6.70952899 -18.5 6.8125 C-19.62664062 6.82539063 -20.75328125 6.83828125 -21.9140625 6.8515625 C-25.05885204 6.97974926 -25.05885204 6.97974926 -27.875 9.1875 C-28.54180368 12.14470628 -28.54180368 12.14470628 -27.875 15.1875 C-23.81994716 18.36067727 -19.48072997 19.08552133 -14.5625 20.0625 C-8.23868447 21.43934603 -2.86946249 22.8526835 2.125 27.1875 C2.95 27.868125 3.775 28.54875 4.625 29.25 C7.09818608 34.09332274 6.92793025 38.87689114 6.125 44.1875 C4.1627131 49.06716919 0.63378703 52.08327613 -4 54.41015625 C-13.00400934 58.14306845 -22.30620072 58.33584598 -31.546875 55.2265625 C-36.71552021 52.91975105 -40.44806858 49.67766696 -42.8125 44.5 C-43.875 41.1875 -43.875 41.1875 -43.875 38.1875 C-41.77258397 38.05253749 -39.6677039 37.95552693 -37.5625 37.875 C-36.39074219 37.81699219 -35.21898437 37.75898437 -34.01171875 37.69921875 C-32.97660156 37.86035156 -31.94148438 38.02148438 -30.875 38.1875 C-29.20703125 40.58203125 -29.20703125 40.58203125 -27.875 43.1875 C-23.64205589 46.09435581 -18.81068098 45.72297482 -13.875 45.1875 C-10.3702235 43.85764431 -10.3702235 43.85764431 -7.875 42.1875 C-7.45753392 39.31385209 -7.45753392 39.31385209 -7.875 36.1875 C-11.91507386 32.99504948 -16.390517 32.19669895 -21.3125 31.1875 C-29.81873424 29.43424997 -35.6328601 27.37672043 -40.875 20.1875 C-42.23272166 16.11433502 -42.39365848 12.4463436 -41.875 8.1875 C-38.87598108 2.18946216 -34.56844747 -1.83728626 -28.25 -4.125 C-18.30690648 -6.10221171 -8.65813204 -5.45838759 0 0 Z " fill="#083784" transform="translate(1256.875,501.8125)"/>
<path d="M0 0 C0 5.28 0 10.56 0 16 C-11.86904364 21.65894886 -23.90121398 26.85992593 -36.00888062 31.98583984 C-41.36215661 34.2523899 -46.71228278 36.52634834 -52.06260109 38.79986954 C-53.93183679 39.59407635 -55.80120196 40.38797783 -57.670578 41.18185425 C-71.18923032 46.92422099 -84.68922017 52.70991683 -98.1875 58.5 C-99.36586426 59.00541321 -100.54422852 59.51082642 -101.75830078 60.03155518 C-106.35907412 62.00491365 -110.95982991 63.97831293 -115.5604248 65.9520874 C-122.17907962 68.79135746 -128.79952339 71.62639534 -135.421875 74.45703125 C-137.71076771 75.43589886 -139.99962861 76.41484083 -142.28848267 77.39379883 C-143.70348514 77.99870992 -145.11866221 78.60321276 -146.5340271 79.20727539 C-153.57085511 82.21083156 -160.58917947 85.24688366 -167.56640625 88.38671875 C-168.74340088 88.91418701 -169.92039551 89.44165527 -171.13305664 89.98510742 C-173.30425978 90.96199927 -175.47173887 91.94723148 -177.63452148 92.94262695 C-178.56981689 93.36374756 -179.5051123 93.78486816 -180.46875 94.21875 C-181.68208008 94.7746582 -181.68208008 94.7746582 -182.91992188 95.34179688 C-185 96 -185 96 -188 95 C-182.62614424 92.22694383 -177.25108698 89.45622812 -171.875 86.6875 C-171.07545898 86.2757251 -170.27591797 85.8639502 -169.45214844 85.43969727 C-159.12781165 80.1249678 -148.78157475 74.86178412 -138.37988281 69.69970703 C-131.97278757 66.51091663 -125.64001737 63.1959033 -119.3203125 59.83789062 C-112.02270755 55.97624134 -104.6410799 52.28937525 -97.23681641 48.63696289 C-91.15830083 45.62527206 -85.14162605 42.50949852 -79.14453125 39.33984375 C-69.32243007 34.14943444 -59.44393142 29.07328073 -49.54907227 24.02319336 C-46.69921845 22.5684817 -43.85052463 21.11151763 -41.00195312 19.65429688 C-35.33955398 16.75981449 -29.67115306 13.87728759 -24 11 C-22.97585999 10.47960144 -21.95171997 9.95920288 -20.89654541 9.42303467 C-17.8356744 7.86987125 -14.77184584 6.32270831 -11.70703125 4.77734375 C-10.76220383 4.29737442 -9.8173764 3.81740509 -8.84391785 3.32289124 C-7.54023003 2.66793922 -7.54023003 2.66793922 -6.21020508 1.99975586 C-5.4433992 1.61250839 -4.67659332 1.22526093 -3.8865509 0.82627869 C-2 0 -2 0 0 0 Z " fill="#86B740" transform="translate(522,533)"/>
<path d="M0 0 C5.26300908 4.34770315 8.85721931 9.23473831 10 16 C-2.6258122 16.9225898 -2.6258122 16.9225898 -5.9375 14.69921875 C-7.1875 13.0625 -7.1875 13.0625 -9 10 C-14.60004123 8.13331959 -20.05177851 8.11444478 -25.4375 10.5625 C-30.5510961 15.42665239 -31.18675902 19.6684211 -31.375 26.5 C-31.20884243 33.0783294 -30.31026968 37.25655475 -26 42.375 C-21.87307672 45.72812516 -17.07182716 45.5000393 -12 45 C-8.93286539 43.66646321 -7.46292508 42.81890377 -5.81640625 39.90625 C-4 38 -4 38 -0.64453125 37.609375 C0.62003906 37.65578125 1.88460938 37.7021875 3.1875 37.75 C5.09595703 37.80414062 5.09595703 37.80414062 7.04296875 37.859375 C8.01878906 37.90578125 8.99460937 37.9521875 10 38 C8.32568324 45.03213041 5.76600979 49.56089623 0 54 C-6.75403974 58.05242385 -15.1335529 58.80663027 -22.8515625 57.52734375 C-31.66764013 55.09027093 -37.63099376 50.30781406 -43 43 C-47.19479548 35.55762093 -47.2091363 26.34069263 -46 18 C-43.28557539 9.23106091 -38.71691613 3.21197761 -30.7890625 -1.2421875 C-20.75900351 -5.94884949 -9.60538284 -5.52219575 0 0 Z " fill="#073884" transform="translate(1197,501)"/>
<path d="M0 0 C4.95 0 9.9 0 15 0 C15 5.61 15 11.22 15 17 C19.29 17 23.58 17 28 17 C28 20.96 28 24.92 28 29 C23.71 29 19.42 29 15 29 C15.09359041 33.36032391 15.19969581 37.72010939 15.31738281 42.07983398 C15.35565347 43.56282212 15.39050978 45.04590248 15.421875 46.52905273 C15.467568 48.66163072 15.52555338 50.79357491 15.5859375 52.92578125 C15.63306885 54.85031128 15.63306885 54.85031128 15.68115234 56.8137207 C15.76379228 60.15387459 15.76379228 60.15387459 18 63 C20.41607417 63.79798218 20.41607417 63.79798218 23.125 64.1875 C24.49011719 64.42533203 24.49011719 64.42533203 25.8828125 64.66796875 C26.58148437 64.77753906 27.28015625 64.88710938 28 65 C28.02687279 66.81242052 28.04633715 68.62495233 28.0625 70.4375 C28.07410156 71.44683594 28.08570313 72.45617187 28.09765625 73.49609375 C28 76 28 76 27 77 C19.29647561 77.69003669 12.36027459 77.78983642 6 73 C1.11856799 68.37548546 0.13094155 62.93389653 -0.15869141 56.44433594 C-0.22084821 52.29561089 -0.17489256 48.14861308 -0.125 44 C-0.11495155 42.54297489 -0.10582899 41.08594309 -0.09765625 39.62890625 C-0.07578711 36.08579671 -0.04135977 32.54294188 0 29 C-2.64 29 -5.28 29 -8 29 C-8 25.04 -8 21.08 -8 17 C-5.36 17 -2.72 17 0 17 C0 11.39 0 5.78 0 0 Z " fill="#0C3D87" transform="translate(1090,481)"/>
<path d="M0 0 C4.62 0 9.24 0 14 0 C14 28.71 14 57.42 14 87 C9.38 87 4.76 87 0 87 C0 58.29 0 29.58 0 0 Z " fill="#063884" transform="translate(997,471)"/>
<path d="M0 0 C4.62 0 9.24 0 14 0 C14 26.73 14 53.46 14 81 C9.38 81 4.76 81 0 81 C0 54.27 0 27.54 0 0 Z " fill="#063582" transform="translate(733,476)"/>
<path d="M0 0 C4.62 0 9.24 0 14 0 C14 19.8 14 39.6 14 60 C9.38 60 4.76 60 0 60 C0 40.2 0 20.4 0 0 Z " fill="#083E88" transform="translate(1127,498)"/>
<path d="M0 0 C1.2219104 0.00607269 1.2219104 0.00607269 2.46850586 0.01226807 C3.30438232 0.01035461 4.14025879 0.00844116 5.00146484 0.00646973 C6.77010397 0.00510771 8.53875309 0.0088053 10.30737305 0.01715088 C13.02016579 0.02785031 15.7322963 0.01725631 18.44506836 0.00445557 C20.16121566 0.00577716 21.87736255 0.00833955 23.59350586 0.01226807 C24.40811279 0.0082196 25.22271973 0.00417114 26.06201172 0 C31.80108658 0.04797379 31.80108658 0.04797379 34.03100586 2.27789307 C34.29944801 4.16546345 34.29944801 4.16546345 34.3253479 6.50892639 C34.33965851 7.39635025 34.35396912 8.28377411 34.36871338 9.1980896 C34.37678009 10.66228836 34.37678009 10.66228836 34.38500977 12.15606689 C34.39815216 13.18220596 34.41129456 14.20834503 34.42483521 15.26557922 C34.46435865 18.6720303 34.48763755 22.0783049 34.50756836 25.48492432 C34.51571941 26.64630102 34.52387047 27.80767773 34.53226852 29.00424767 C34.57401297 35.15022449 34.6026071 41.29611168 34.62133789 47.44219971 C34.64348234 53.79836687 34.71229023 60.15313651 34.79168129 66.50880909 C34.84391062 71.38926337 34.86071203 76.26938197 34.86790085 81.15009117 C34.87765856 83.49335872 34.90096084 85.83661 34.93797684 88.17960548 C34.98655488 91.45804958 34.98487333 94.73284371 34.97094727 98.01153564 C34.99656738 98.98159546 35.0221875 99.95165527 35.04858398 100.95111084 C35.00711778 103.62607205 34.8983828 105.74548113 34.03100586 108.27789307 C31.62624593 110.59381779 29.06130101 111.92952459 26.03100586 113.27789307 C24.83024414 113.97011963 24.83024414 113.97011963 23.60522461 114.67633057 C22.98260742 114.99859619 22.35999023 115.32086182 21.71850586 115.65289307 C20.76524414 116.15949463 20.76524414 116.15949463 19.79272461 116.67633057 C18.03100586 117.27789307 18.03100586 117.27789307 15.03100586 116.27789307 C20.64100586 113.30789307 26.25100586 110.33789307 32.03100586 107.27789307 C32.05355439 93.73524832 32.07191949 80.19261594 32.08281803 66.6499567 C32.08804748 60.36227283 32.09514625 54.0746024 32.10644531 47.78692627 C32.117272 41.72451583 32.12328223 35.66211838 32.1258831 29.59969902 C32.12773775 27.2811303 32.13135911 24.96256233 32.13673592 22.6439991 C32.14394344 19.40874799 32.14499692 16.17355124 32.14453125 12.93829346 C32.14992416 11.48497116 32.14992416 11.48497116 32.15542603 10.00228882 C32.15405136 9.12584213 32.1526767 8.24939545 32.15126038 7.34638977 C32.15218217 6.5803798 32.15310396 5.81436983 32.15405369 5.02514744 C32.22087377 3.24919901 32.22087377 3.24919901 31.03100586 2.27789307 C19.15100586 2.27789307 7.27100586 2.27789307 -4.96899414 2.27789307 C-5.29899414 43.19789307 -5.62899414 84.11789307 -5.96899414 126.27789307 C-3.49399414 125.78289307 -3.49399414 125.78289307 -0.96899414 125.27789307 C-4.59399414 128.27789307 -4.59399414 128.27789307 -7.96899414 128.27789307 C-8.01566928 111.88408415 -8.05096092 95.49029671 -8.07261848 79.09643745 C-8.08294076 71.48486233 -8.09701919 63.87332844 -8.11987305 56.26177979 C-8.13977789 49.62926039 -8.15270365 42.99677084 -8.15717113 36.36422241 C-8.15978346 32.85079051 -8.16594315 29.33744404 -8.18045425 25.82403946 C-8.19650416 21.90645978 -8.1969757 17.98896445 -8.19604492 14.0713501 C-8.20323547 12.9003476 -8.21042603 11.72934509 -8.21783447 10.52285767 C-8.21508514 9.45992493 -8.21233582 8.39699219 -8.20950317 7.30184937 C-8.21134676 6.37452562 -8.21319035 5.44720188 -8.2150898 4.49177742 C-7.65834148 -0.5167481 -4.22446265 0.03531292 0 0 Z " fill="#022679" transform="translate(427.968994140625,437.72210693359375)"/>
<path d="M0 0 C2.63394361 2.63394361 3.32311583 5.18560817 4.6015625 8.6875 C4.8428891 9.34580811 5.0842157 10.00411621 5.33285522 10.68237305 C5.84142819 12.07341089 6.34727281 13.46544882 6.85058594 14.85839844 C7.62284756 16.99404754 8.4044602 19.12609485 9.1875 21.2578125 C13 31.71364526 13 31.71364526 13 34 C5.41 34 -2.18 34 -10 34 C-8.81506424 28.6677891 -7.718143 23.77685989 -6.0546875 18.65234375 C-5.70019531 17.55341797 -5.34570312 16.45449219 -4.98046875 15.32226562 C-4.61566406 14.20529297 -4.25085938 13.08832031 -3.875 11.9375 C-3.50246094 10.78572266 -3.12992188 9.63394531 -2.74609375 8.44726562 C-1.83437981 5.63030331 -0.9189396 2.81461174 0 0 Z " fill="#F8FAFB" transform="translate(821,491)"/>
<path d="M0 0 C1.19882812 0.00483398 1.19882812 0.00483398 2.421875 0.00976562 C3.246875 0.01814453 4.071875 0.02652344 4.921875 0.03515625 C5.76234375 0.03966797 6.6028125 0.04417969 7.46875 0.04882812 C9.53648901 0.06057664 11.60419124 0.07851103 13.671875 0.09765625 C13.04798729 6.67560274 12.50753634 9.4817977 7.671875 14.09765625 C2.44040582 16.66072504 -2.60875919 16.78363716 -8.328125 16.09765625 C-11.515625 14.47265625 -11.515625 14.47265625 -13.328125 12.09765625 C-13.953125 9.16015625 -13.953125 9.16015625 -13.328125 6.09765625 C-9.31599184 1.0824898 -6.19926421 -0.04428046 0 0 Z " fill="#F8FAFB" transform="translate(958.328125,531.90234375)"/>
<path d="M0 0 C2.5 2.125 2.5 2.125 4 5 C4 8.77910616 3.83289714 11.00693033 1.375 13.9375 C-2.02619871 15.4590889 -4.31282731 15.51749792 -8 15 C-11 12.9375 -11 12.9375 -13 10 C-13.1506132 5.70752394 -12.66257079 3.77949504 -9.875 0.5 C-6.02851705 -1.50686067 -4.11453459 -1.27176524 0 0 Z " fill="#0B3785" transform="translate(1138,475)"/>
<path d="M0 0 C4.62 0 9.24 0 14 0 C14 19.8 14 39.6 14 60 C9.38 60 4.76 60 0 60 C0 40.2 0 20.4 0 0 Z M1 1 C1 19.81 1 38.62 1 58 C4.63 58 8.26 58 12 58 C12 39.19 12 20.38 12 1 C8.37 1 4.74 1 1 1 Z " fill="#253782" transform="translate(1127,498)"/>
<path d="M0 0 C0.33 0 0.66 0 1 0 C1 27.72 1 55.44 1 84 C4.96 84 8.92 84 13 84 C13 84.66 13 85.32 13 86 C8.38 86 3.76 86 -1 86 C-1.21943468 57.32720208 -0.56559648 28.66583009 0 0 Z " fill="#0B3080" transform="translate(998,472)"/>
<path d="M0 0 C0.66 0.33 1.32 0.66 2 1 C0.00928433 2.99071567 -1.39415438 3.77938486 -3.9140625 4.9453125 C-4.67460937 5.29980469 -5.43515625 5.65429688 -6.21875 6.01953125 C-7.0128125 6.38433594 -7.806875 6.74914062 -8.625 7.125 C-9.42679687 7.49753906 -10.22859375 7.87007812 -11.0546875 8.25390625 C-13.03468316 9.17318995 -15.01646972 10.0883743 -17 11 C-16.505 11.99 -16.505 11.99 -16 13 C-20.00153283 14.797224 -24.00341696 16.59366284 -28.00561523 18.3894043 C-29.36443383 18.9992195 -30.72315957 19.60924166 -32.08178711 20.21948242 C-34.04516053 21.10130603 -36.00887706 21.98236172 -37.97265625 22.86328125 C-39.74008179 23.65665894 -39.74008179 23.65665894 -41.54321289 24.46606445 C-43.25432251 25.22536255 -43.25432251 25.22536255 -45 26 C-45.62333221 26.29619232 -46.24666443 26.59238464 -46.8888855 26.89755249 C-51.67330364 29.10889879 -51.67330364 29.10889879 -55 28 C-44.79703138 22.73678229 -34.58871112 17.48411725 -24.37353516 12.24462891 C-21.71811412 10.88251208 -19.06384432 9.51823479 -16.41162109 8.14990234 C-13.59075671 6.69640858 -10.76530239 5.2524339 -7.9375 3.8125 C-7.13731445 3.39758301 -6.33712891 2.98266602 -5.51269531 2.55517578 C-3.70507501 1.64161666 -1.85639416 0.80986552 0 0 Z " fill="#77AE2A" transform="translate(389,600)"/>
<path d="M0 0 C-9.41483101 4.55205526 -18.96145396 8.79436279 -28.5625 12.9375 C-29.69220215 13.43419189 -30.8219043 13.93088379 -31.98583984 14.44262695 C-33.60353271 15.13424927 -33.60353271 15.13424927 -35.25390625 15.83984375 C-36.21627197 16.25613037 -37.1786377 16.67241699 -38.17016602 17.10131836 C-41.25895922 18.08223871 -43.77902926 18.16466643 -47 18 C-42.72457424 14.41849151 -37.6757024 12.31856077 -32.66796875 9.9609375 C-31.97058594 9.62320313 -31.27320313 9.28546875 -30.5546875 8.9375 C-29.92030762 8.63714844 -29.28592773 8.33679688 -28.63232422 8.02734375 C-26.66972812 6.94737567 -26.66972812 6.94737567 -25 4 C-22.83125748 4.50603992 -21.00032373 4.99983813 -19 6 C-17.16092376 5.46627461 -17.16092376 5.46627461 -15.15625 4.53125 C-14.40472656 4.20769531 -13.65320313 3.88414062 -12.87890625 3.55078125 C-12.09386719 3.20402344 -11.30882812 2.85726562 -10.5 2.5 C-8.95103601 1.81581065 -7.39907013 1.13836467 -5.84375 0.46875 C-5.15474609 0.16388672 -4.46574219 -0.14097656 -3.75585938 -0.45507812 C-2 -1 -2 -1 0 0 Z " fill="#7FB337" transform="translate(417,594)"/>
<path d="M0 0 C0 5.28 0 10.56 0 16 C-14.73214286 22.96428571 -14.73214286 22.96428571 -20.75 25.5 C-21.50796875 25.8196875 -22.2659375 26.139375 -23.046875 26.46875 C-25 27 -25 27 -28 26 C-19.75 22.37 -11.5 18.74 -3 15 C-2.67 11.04 -2.34 7.08 -2 3 C-2.66 2.34 -3.32 1.68 -4 1 C-2 0 -2 0 0 0 Z " fill="#79AF2C" transform="translate(522,533)"/>
<path d="M0 0 C-7.21072747 3.41820004 -14.43204896 6.81633257 -21.75 10 C-23.16539062 10.61875 -23.16539062 10.61875 -24.609375 11.25 C-27 12 -27 12 -30 11 C-28.35 10.01 -26.7 9.02 -25 8 C-25.33 7.01 -25.66 6.02 -26 5 C-24.35 4.67 -22.7 4.34 -21 4 C-21 4.66 -21 5.32 -21 6 C-15.22434673 4.15848736 -9.63310173 2.07626929 -4.06640625 -0.328125 C-2 -1 -2 -1 0 0 Z " fill="#76AD29" transform="translate(417,594)"/>
<path d="M0 0 C4.29 0 8.58 0 13 0 C12.67 1.32 12.34 2.64 12 4 C12 3.34 12 2.68 12 2 C8.7 2 5.4 2 2 2 C4.44778506 7.34886364 6.60587346 11.09410974 11 15 C6.56063049 13.64352598 4.5843118 11.83191061 2 8 C0.57856208 5.01498036 0 3.32269384 0 0 Z " fill="#092276" transform="translate(1213,540)"/>
<path d="M0 0 C3.44216672 2.6598561 3.99504674 5.90288286 5 10 C-7.43946188 11.22690583 -7.43946188 11.22690583 -11.265625 8.21875 C-12.72868059 6.2017219 -13.9433191 4.25425259 -15 2 C-11.21503862 3.51398455 -10.9927802 4.0144396 -9 8 C-5.04 8 -1.08 8 3 8 C2.505 7.05125 2.01 6.1025 1.5 5.125 C0 2 0 2 0 0 Z " fill="#052476" transform="translate(1202,507)"/>
<path d="M0 0 C8.9458533 -0.32596227 17.59488456 -0.62117622 26 3 C26.33 3.66 26.66 4.32 27 5 C26.44054687 4.86722656 25.88109375 4.73445313 25.3046875 4.59765625 C18.8674435 3.17980669 12.58652701 2.63277835 6.00390625 2.34375 C3 2 3 2 0 0 Z " fill="#0A2B7C" transform="translate(679,475)"/>
<path d="M0 0 C4.29 0 8.58 0 13 0 C13 3.96 13 7.92 13 12 C8.71 11.67 4.42 11.34 0 11 C0 10.67 0 10.34 0 10 C3.63 10 7.26 10 11 10 C11 7.03 11 4.06 11 1 C7.37 1 3.74 1 0 1 C0 0.67 0 0.34 0 0 Z " fill="#0C2B7C" transform="translate(1105,498)"/>
<path d="M0 0 C4.62 0 9.24 0 14 0 C11.375 8.75 11.375 8.75 8 11 C9.20689255 7.89656201 10.50596946 4.98806107 12 2 C5.565 2.495 5.565 2.495 -1 3 C-0.67 2.01 -0.34 1.02 0 0 Z " fill="#1A337F" transform="translate(1193,539)"/>
<path d="M0 0 C4.95 0 9.9 0 15 0 C14.67 0.99 14.34 1.98 14 3 C13.22914062 2.98839844 12.45828125 2.97679687 11.6640625 2.96484375 C10.66117188 2.95582031 9.65828125 2.94679688 8.625 2.9375 C7.12839844 2.92009766 7.12839844 2.92009766 5.6015625 2.90234375 C3.01567547 2.81993398 3.01567547 2.81993398 1 4 C0.67 2.68 0.34 1.36 0 0 Z " fill="#031F75" transform="translate(1018,498)"/>
<path d="M0 0 C0.33 0.99 0.66 1.98 1 3 C4.63 3 8.26 3 12 3 C12 3.66 12 4.32 12 5 C7.38 5 2.76 5 -2 5 C-1.34 3.35 -0.68 1.7 0 0 Z " fill="#0A2A7C" transform="translate(1034,577)"/>
<path d="M0 0 C3.19456081 2.63081478 4.29085201 5.68904879 5.75 9.5 C6.42289063 11.21703125 6.42289063 11.21703125 7.109375 12.96875 C8 16 8 16 7 19 C5.9955866 16.7101766 4.99632388 14.4183401 4 12.125 C3.71382812 11.47402344 3.42765625 10.82304687 3.1328125 10.15234375 C1 5.2265625 1 5.2265625 1 3 C0.34 3 -0.32 3 -1 3 C-0.67 2.01 -0.34 1.02 0 0 Z " fill="#0F2B7A" transform="translate(838,500)"/>
<path d="M0 0 C0.99 0.33 1.98 0.66 3 1 C-0.91480498 4.71649404 -3.31847942 5.50968467 -8.6875 5.375 C-9.82574219 5.36210938 -10.96398438 5.34921875 -12.13671875 5.3359375 C-15 5 -15 5 -17 3 C-16.19175781 3.03480469 -15.38351562 3.06960938 -14.55078125 3.10546875 C-12.94783203 3.14607422 -12.94783203 3.14607422 -11.3125 3.1875 C-9.72888672 3.23970703 -9.72888672 3.23970703 -8.11328125 3.29296875 C-4.62650351 2.9648529 -2.92758187 1.82038737 0 0 Z " fill="#072176" transform="translate(1190,543)"/>
<path d="M0 0 C0.66 0.33 1.32 0.66 2 1 C2 1.66 2 2.32 2 3 C0.21046815 3.83790789 -1.58169695 4.67019396 -3.375 5.5 C-4.87160156 6.19609375 -4.87160156 6.19609375 -6.3984375 6.90625 C-9 8 -9 8 -11 8 C-11 7.34 -11 6.68 -11 6 C-10.28972656 5.65066406 -9.57945312 5.30132813 -8.84765625 4.94140625 C-7.92855469 4.48636719 -7.00945312 4.03132812 -6.0625 3.5625 C-4.68771484 2.88380859 -4.68771484 2.88380859 -3.28515625 2.19140625 C-1.09471096 1.19474606 -1.09471096 1.19474606 0 0 Z " fill="#8BBA48" transform="translate(391,600)"/>
<path d="M0 0 C0.81210937 0.33837891 0.81210937 0.33837891 1.640625 0.68359375 C-0.29046463 1.71650216 -2.229493 2.73458047 -4.171875 3.74609375 C-5.25082031 4.31457031 -6.32976562 4.88304687 -7.44140625 5.46875 C-10.359375 6.68359375 -10.359375 6.68359375 -13.359375 5.68359375 C-11.61814951 4.64786479 -9.86600905 3.63046855 -8.109375 2.62109375 C-6.64757812 1.76837891 -6.64757812 1.76837891 -5.15625 0.8984375 C-2.359375 -0.31640625 -2.359375 -0.31640625 0 0 Z " fill="#67A51D" transform="translate(347.359375,622.31640625)"/>
<path d="M0 0 C2.0625 0.4375 2.0625 0.4375 4 1 C4 1.99 4 2.98 4 4 C3.34 4 2.68 4 2 4 C2 4.66 2 5.32 2 6 C0.1875 7.0625 0.1875 7.0625 -2 8 C-2.99 7.67 -3.98 7.34 -5 7 C-3.35 6.01 -1.7 5.02 0 4 C-0.33 3.01 -0.66 2.02 -1 1 C-0.67 0.67 -0.34 0.34 0 0 Z " fill="#7EB133" transform="translate(392,598)"/>
<path d="M0 0 C0.99 0.33 1.98 0.66 3 1 C2.75 2.875 2.75 2.875 2 5 C-0.0625 6.25 -0.0625 6.25 -2 7 C-1.125 1.125 -1.125 1.125 0 0 Z " fill="#082F7F" transform="translate(802,509)"/>
<path d="M0 0 C0.33 0.99 0.66 1.98 1 3 C-0.65 3.66 -2.3 4.32 -4 5 C-4.66 4.34 -5.32 3.68 -6 3 C-4.02 2.01 -2.04 1.02 0 0 Z " fill="#80B538" transform="translate(353,618)"/>
</svg>
