<?xml version="1.0" encoding="UTF-8"?>
<svg version="1.1" xmlns="http://www.w3.org/2000/svg" width="1024" height="1024">
<path d="M0 0 C337.92 0 675.84 0 1024 0 C1024 337.92 1024 675.84 1024 1024 C686.08 1024 348.16 1024 0 1024 C0 686.08 0 348.16 0 0 Z " fill="#FAF9F9" transform="translate(0,0)"/>
<path d="M0 0 C26.73 0 53.46 0 81 0 C83.25 5.625 83.25 5.625 83.24609566 9.66013813 C83.25007775 10.57229283 83.25405985 11.48444752 83.25816262 12.42424327 C83.24942409 13.91403037 83.24942409 13.91403037 83.24050903 15.43391418 C83.24221788 16.49582637 83.24392673 17.55773856 83.24568737 18.6518299 C83.24898568 22.21562743 83.23797276 25.77923734 83.22705078 29.34301758 C83.22648674 31.89544673 83.22680308 34.44787621 83.22793579 37.00030518 C83.22839146 42.49835923 83.22271291 47.9963527 83.21146011 53.4943943 C83.19520111 61.4436113 83.1899967 69.39280534 83.18748413 77.34203716 C83.18310766 90.23934964 83.16979984 103.13663681 83.15087891 116.03393555 C83.13251888 128.56192905 83.11836297 141.08991568 83.10986328 153.61791992 C83.10933783 154.39023816 83.10881239 155.1625564 83.10827102 155.95827822 C83.10566093 159.83279946 83.10313352 163.70732074 83.10064721 167.58184206 C83.07991619 199.72124644 83.04469195 231.8606197 83 264 C79.65848015 265.91296002 76.31635242 267.82485561 72.97412109 269.73657227 C71.56706154 270.54211422 71.56706154 270.54211422 70.13157654 271.36392975 C62.66979537 275.63093041 55.16460541 279.80940689 47.625 283.9375 C37.44936391 289.52384536 27.31464899 295.17618636 17.23095703 300.92749023 C14.82641906 302.29562017 12.41470119 303.6499205 10 305 C8.32744141 305.94939453 8.32744141 305.94939453 6.62109375 306.91796875 C4 308 4 308 0 307 C0 205.69 0 104.38 0 0 Z " fill="#8DAF24" transform="translate(573,279)"/>
<path d="M0 0 C1.11433914 0.00303635 1.11433914 0.00303635 2.25119019 0.00613403 C3.41942825 0.00350555 3.41942825 0.00350555 4.61126709 0.00082397 C7.19829505 -0.00359493 9.78525522 -0.00065643 12.37228394 0.00271606 C14.16207899 0.00204304 15.95187396 0.00107302 17.7416687 -0.00018311 C21.49778105 -0.00166013 25.25386966 0.00049462 29.00997925 0.00515747 C33.83578887 0.01085476 38.66154288 0.00757578 43.48735046 0.00158501 C47.18466616 -0.00202048 50.88196858 -0.00088208 54.57928467 0.0017128 C56.35917162 0.0023821 58.13905975 0.00155353 59.91894531 -0.00076675 C62.40212216 -0.00329309 64.88520768 0.00054702 67.36837769 0.00613403 C68.11127045 0.0041098 68.85416321 0.00208557 69.61956787 0 C74.69552132 0.02126595 74.69552132 0.02126595 75.80978394 1.13552856 C75.91891097 4.14549625 75.96203369 7.13286703 75.96368408 10.14364624 C75.97025746 11.57908834 75.97025746 11.57908834 75.97696364 13.04352927 C75.99040525 16.27634604 75.99654249 19.50913551 76.00265503 22.74197388 C76.01055178 25.04925156 76.01882046 27.35652799 76.0274353 29.6638031 C76.05370489 37.26374117 76.06896786 44.86368489 76.08322144 52.46365356 C76.08857909 55.07526402 76.09395659 57.68687443 76.09935379 60.2984848 C76.12098976 71.15871351 76.13987958 82.01893987 76.15097618 92.87918472 C76.15390601 95.69917047 76.15686765 98.51915618 76.15988159 101.33914185 C76.16062764 102.04005926 76.16137369 102.74097668 76.16214235 103.46313402 C76.1747966 114.81822293 76.20801868 126.17315527 76.24968342 137.52817097 C76.29208676 149.17978863 76.31526166 160.83131781 76.32089674 172.48301196 C76.32455761 179.02758813 76.33665701 185.57189908 76.36899948 192.11640167 C76.39898474 198.27237244 76.40542585 204.42791619 76.39361572 210.58394432 C76.39339419 212.84589158 76.40176476 215.10785809 76.41926956 217.36973763 C76.4418395 220.45350323 76.43372215 223.53570455 76.41778564 226.61947632 C76.43860878 227.9681661 76.43860878 227.9681661 76.45985258 229.34410214 C76.4033572 233.76851035 76.27045078 235.55549942 73.43361855 239.12737656 C70.84106526 241.1115874 68.33693708 242.72131132 65.44259644 244.22927856 C63.88484497 245.05214355 63.88484497 245.05214355 62.29562378 245.89163208 C61.18654663 246.46711792 60.07746948 247.04260376 58.93478394 247.63552856 C56.57429756 248.88219023 54.2148292 250.13060281 51.85665894 251.38162231 C51.26158539 251.69630966 50.66651184 252.01099701 50.05340576 252.33522034 C44.3685844 255.34922228 38.77226432 258.50831943 33.18478394 261.69802856 C30.3798547 263.2871853 27.57367404 264.87411409 24.76730347 266.46072388 C22.69093474 267.63654437 20.61656133 268.815892 18.54367065 269.99783325 C15.24531914 271.87234288 11.93535699 273.72469043 8.62228394 275.57302856 C7.08870239 276.45293457 7.08870239 276.45293457 5.5241394 277.35061646 C4.57297241 277.87647339 3.62180542 278.40233032 2.64181519 278.94412231 C1.80368286 279.41648315 0.96555054 279.88884399 0.10202026 280.3755188 C-2.19021606 281.13552856 -2.19021606 281.13552856 -4.33348083 280.18302917 C-4.94620346 279.83735397 -5.55892609 279.49167877 -6.19021606 279.13552856 C-6.21308128 243.73699482 -6.2307137 208.33846236 -6.24128139 172.93992275 C-6.24253217 168.7652972 -6.24382649 164.59067167 -6.24514771 160.41604614 C-6.24541002 159.58491755 -6.24567233 158.75378895 -6.24594259 157.89747464 C-6.25029952 144.42190682 -6.25818719 130.94634324 -6.26736886 117.47077794 C-6.27670476 103.65411175 -6.28227154 89.8374478 -6.28430456 76.0207786 C-6.28567992 67.48815132 -6.29003121 58.95553605 -6.29813253 50.42291247 C-6.3033992 44.57988296 -6.30502054 38.7368597 -6.30371744 32.89382798 C-6.30307394 29.5175766 -6.30409296 26.14134626 -6.30942154 22.76509857 C-6.31435125 19.1132946 -6.31321703 15.46154319 -6.31047058 11.80973816 C-6.31338342 10.73096737 -6.31629626 9.65219659 -6.31929737 8.54073578 C-6.31730632 7.57036076 -6.31531528 6.59998574 -6.31326389 5.60020542 C-6.31364361 4.75608713 -6.31402333 3.91196883 -6.31441456 3.0422712 C-6.05474146 -0.94432921 -3.36451699 0.0140958 0 0 Z " fill="#163B70" transform="translate(468.1902160644531,366.8644714355469)"/>
<path d="M0 0 C1.13072182 0.00539291 1.13072182 0.00539291 2.2842865 0.01089478 C3.46956436 0.01067574 3.46956436 0.01067574 4.67878723 0.01045227 C7.30309245 0.0111516 9.92732759 0.01894489 12.55162048 0.02676392 C14.36623089 0.02862803 16.18084179 0.03005196 17.99545288 0.03105164 C22.78111653 0.03487737 27.56675003 0.04470813 32.35240173 0.05575562 C37.23195488 0.06596854 42.11151287 0.070549 46.99107361 0.07559204 C56.57246709 0.08633035 66.15383816 0.10340744 75.73521423 0.12442017 C75.85194516 27.41861256 75.94015231 54.71276762 75.99427509 82.00715923 C76.02007167 94.6800387 76.0552502 107.3527632 76.1124115 120.02554321 C76.16220168 131.06938221 76.19449466 142.11310899 76.20565671 153.15705711 C76.21218283 159.00638804 76.22755169 164.85539791 76.26386452 170.70462608 C76.29775442 176.20806342 76.30828123 181.71104685 76.30075264 187.21457863 C76.30213031 189.23626292 76.31210425 191.25796209 76.33124161 193.27955627 C76.35607014 196.03717653 76.35015683 198.79307655 76.33648682 201.55073547 C76.35105102 202.35327041 76.36561523 203.15580534 76.38062078 203.98265952 C76.32659332 208.00663458 75.94178702 209.86763794 73.38737774 213.04292011 C70.4798811 215.32481351 67.59701213 217.05531933 64.31724548 218.76113892 C63.40245171 219.24242249 63.40245171 219.24242249 62.46917725 219.73342896 C60.499531 220.76780199 58.52367166 221.78966421 56.54771423 222.81192017 C54.49053322 223.88961216 52.43516266 224.97070323 50.37986755 226.05198669 C49.02486203 226.76460158 47.66931469 227.4761872 46.31321716 228.1867218 C41.28710661 230.82207702 36.30744651 233.53104991 31.36021423 236.31192017 C29.9958312 237.07399763 28.63124428 237.83571017 27.26646423 238.59707642 C26.56392517 238.98911255 25.86138611 239.38114868 25.13755798 239.7850647 C24.34478455 240.227052 23.55201111 240.66903931 22.73521423 241.12442017 C21.74134705 241.67855591 20.74747986 242.23269165 19.72349548 242.80361938 C16.44064069 244.62791787 13.1511194 246.43969123 9.86021423 248.24942017 C8.81816833 248.83102905 7.77612244 249.41263794 6.70249939 250.01187134 C5.72587341 250.54659058 4.74924744 251.08130981 3.74302673 251.63223267 C2.43809265 252.35370483 2.43809265 252.35370483 1.10679626 253.0897522 C-1.26478577 254.12442017 -1.26478577 254.12442017 -5.26478577 254.12442017 C-6.79845914 252.5907468 -6.39017282 251.20708676 -6.39062691 249.06858826 C-6.39323465 248.18939822 -6.3958424 247.31020819 -6.39852917 246.40437603 C-6.39629845 245.42745202 -6.39406773 244.45052801 -6.39176941 243.44400024 C-6.3933294 242.41479619 -6.39488939 241.38559214 -6.39649665 240.32520008 C-6.4005115 236.84810298 -6.39731514 233.37104891 -6.3941803 229.89395142 C-6.39553412 227.41269912 -6.39731395 224.93144702 -6.39949036 222.45019531 C-6.40359079 216.39334968 -6.40297136 210.33652118 -6.40007772 204.2796762 C-6.39782388 199.35932167 -6.39751107 194.43897062 -6.39860153 189.51861572 C-6.39875477 188.8196489 -6.398908 188.12068208 -6.39906587 187.40053445 C-6.39938558 185.98081771 -6.3997098 184.56110098 -6.40003847 183.14138424 C-6.40289341 169.81314119 -6.39960601 156.48490499 -6.3942381 143.15666306 C-6.38977005 131.70808647 -6.39054598 120.25952001 -6.39515686 108.8109436 C-6.40050237 95.53200838 -6.40261872 82.25307918 -6.3995446 68.97414303 C-6.39922603 67.55950356 -6.39891166 66.14486408 -6.39860153 64.73022461 C-6.39837012 63.68604448 -6.39837012 63.68604448 -6.39813403 62.6207698 C-6.39726881 57.70349757 -6.39873187 52.78622916 -6.40108109 47.86895752 C-6.40417046 41.25676539 -6.40198665 34.64458952 -6.39618683 28.03239822 C-6.39485849 25.59785621 -6.39525459 23.16331259 -6.39744949 20.72877121 C-6.40015811 17.4207719 -6.39678342 14.11283534 -6.39176941 10.80484009 C-6.39400013 9.82791608 -6.39623085 8.85099207 -6.39852917 7.8444643 C-6.39592142 6.96527427 -6.39331368 6.08608423 -6.39062691 5.18025208 C-6.39046456 4.41565768 -6.3903022 3.65106329 -6.39013493 2.86329937 C-6.11166803 -0.99967257 -3.19396935 0.0064292 0 0 Z " fill="#163B70" transform="translate(357.26478576660156,454.8755798339844)"/>
<path d="M0 0 C0.21665549 3.06627706 0.37459318 6.11727238 0.5 9.1875 C0.56703125 10.05181641 0.6340625 10.91613281 0.703125 11.80664062 C0.78246877 14.39523114 0.69073863 16.5021062 0 19 C-2.7555246 21.3466403 -4.7792926 22.48308271 -8 24 C-9.80057395 24.96808996 -11.60082452 25.9368144 -13.39656067 26.91384888 C-16.93468647 28.82920872 -20.50089181 30.69128932 -24.0625 32.5625 C-25.60060944 33.37325483 -27.13861299 34.18421058 -28.67651367 34.99536133 C-33.11519331 37.33497737 -37.55703462 39.66853491 -42 42 C-43.11052734 42.58297852 -44.22105469 43.16595703 -45.36523438 43.76660156 C-51.90162199 47.19421946 -58.44804518 50.60224513 -65 54 C-66.06331543 54.55155762 -67.12663086 55.10311523 -68.22216797 55.67138672 C-83.42072621 63.55123109 -98.63940991 71.39165433 -113.86740112 79.21444702 C-123.69575952 84.26349577 -133.5103334 89.33779124 -143.3125 94.4375 C-152.12637034 99.02162458 -160.97059439 103.53578056 -169.8840332 107.92358398 C-174.58070781 110.24680922 -179.23091285 112.64491255 -183.8578949 115.10316467 C-197.49004476 122.33896726 -211.28985511 129.23864068 -225.09350586 136.1394043 C-227.97478234 137.58000209 -230.85463703 139.02337935 -233.7331543 140.46948242 C-251.74871021 149.51941253 -269.82722903 158.380494 -288.18508911 166.71908569 C-290.01596248 167.55221753 -291.84234318 168.3953186 -293.66329956 169.24990845 C-294.46333405 169.62030243 -295.26336853 169.99069641 -296.08764648 170.37231445 C-296.77495346 170.6949678 -297.46226044 171.01762115 -298.1703949 171.35005188 C-300.69989833 172.24863158 -302.52592209 171.95770758 -305 171 C-305 169.68 -305 168.36 -305 167 C-279.22388779 152.0967677 -253.41496782 137.2687753 -227.35888672 122.85888672 C-221.73518117 119.74659612 -216.11795054 116.62266279 -210.5 113.5 C-208.24741887 112.24865644 -205.99481472 110.99735434 -203.7421875 109.74609375 C-199.26758332 107.26027445 -194.79368143 104.77319771 -190.3203125 102.28515625 C-178.11654557 95.49894941 -165.90246302 88.73202969 -153.6725769 81.99304199 C-144.83187617 77.12146955 -136.0060433 72.22410177 -127.1875 67.3125 C-117.63423342 61.99400749 -108.04286608 56.75126576 -98.42016602 51.55957031 C-92.63186004 48.4342996 -86.86626466 45.27329206 -81.125 42.0625 C-73.89817646 38.02091177 -66.61141556 34.09717628 -59.3125 30.1875 C-50.86141253 25.65679178 -42.46289688 21.04834601 -34.125 16.3125 C-33.19502197 15.785354 -32.26504395 15.25820801 -31.30688477 14.71508789 C-27.57240753 12.59743196 -23.83855261 10.47878832 -20.11035156 8.35009766 C-17.32892951 6.76535583 -14.54039799 5.1938689 -11.75 3.625 C-10.90969238 3.14200439 -10.06938477 2.65900879 -9.20361328 2.16137695 C-8.43001465 1.72913818 -7.65641602 1.29689941 -6.859375 0.8515625 C-5.84568848 0.27656006 -5.84568848 0.27656006 -4.81152344 -0.31005859 C-3 -1 -3 -1 0 0 Z " fill="#8DAE23" transform="translate(657,578)"/>
<path d="M0 0 C0.66 1.32 1.32 2.64 2 4 C2.99 3.67 3.98 3.34 5 3 C5 3.66 5 4.32 5 5 C2.42786866 6.61949011 1.32330841 7.04408751 -1.75 6.625 C-2.4925 6.41875 -3.235 6.2125 -4 6 C-4 4.68 -4 3.36 -4 2 C-2.68 1.34 -1.36 0.68 0 0 Z " fill="#85A819" transform="translate(356,743)"/>
<path d="M0 0 C0.99 0.33 1.98 0.66 3 1 C3 1.66 3 2.32 3 3 C4.32 3.66 5.64 4.32 7 5 C4 6 4 6 1 6 C-1 5 -1 5 -2 3 C-1.34 3 -0.68 3 0 3 C0 2.01 0 1.02 0 0 Z " fill="#93B12E" transform="translate(357,742)"/>
</svg>
