<?xml version="1.0" encoding="UTF-8"?>
<svg version="1.1" xmlns="http://www.w3.org/2000/svg" width="1024" height="1024">
<path d="M0 0 C337.92 0 675.84 0 1024 0 C1024 337.92 1024 675.84 1024 1024 C686.08 1024 348.16 1024 0 1024 C0 686.08 0 348.16 0 0 Z " fill="#FDFCFC" transform="translate(0,0)"/>
<path d="M0 0 C15.84 0 31.68 0 48 0 C48 50.16 48 100.32 48 152 C37.44 157.61 26.88 163.22 16 169 C11.38 171.64 6.76 174.28 2 177 C1.34 177 0.68 177 0 177 C0 118.59 0 60.18 0 0 Z " fill="#A4D53B" transform="translate(304,346)"/>
<path d="M0 0 C15.84 0 31.68 0 48 0 C48 41.91 48 83.82 48 127 C39.75 131.62 31.5 136.24 23 141 C14.91104796 145.53755467 14.91104796 145.53755467 6.82324219 150.07714844 C4.61562192 151.19455666 2.2973351 152.08106596 0 153 C0 102.51 0 52.02 0 0 Z " fill="#0C316B" transform="translate(237,406)"/>
<path d="M0 0 C15.84 0 31.68 0 48 0 C48 36.3 48 72.6 48 110 C41.07 113.63 34.14 117.26 27 121 C21.80819413 123.90413902 16.64674585 126.84325524 11.50195312 129.828125 C10.57189453 130.36179687 9.64183594 130.89546875 8.68359375 131.4453125 C7.87462646 131.91469238 7.06565918 132.38407227 6.23217773 132.86767578 C4 134 4 134 0 135 C0 90.45 0 45.9 0 0 Z " fill="#0F336F" transform="translate(170,460)"/>
<path d="M0 0 C6.02346125 4.70167079 11.68458556 10.23297027 15.0625 17.1875 C15.0625 18.1775 15.0625 19.1675 15.0625 20.1875 C8.7925 22.8275 2.5225 25.4675 -3.9375 28.1875 C-5.05125 26.805625 -6.165 25.42375 -7.3125 24 C-12.61992757 17.99248394 -19.80008583 13.5950192 -27.94140625 12.94921875 C-35.86113961 12.78404319 -41.93927216 13.3863043 -48.9375 17.1875 C-49.57171875 17.51492188 -50.2059375 17.84234375 -50.859375 18.1796875 C-58.47271175 22.79485181 -63.34734346 31.95971352 -65.50390625 40.3984375 C-67.46366142 53.0044302 -66.11342833 66.09864755 -59.453125 77.15234375 C-54.30394364 84.06657954 -47.47364299 88.76895729 -38.9375 90.1875 C-28.15789047 90.98034257 -19.17160325 89.6640006 -10.6328125 82.75 C-8.45992569 80.74733934 -6.64026786 78.59975447 -4.9375 76.1875 C-0.07201192 76.84684184 4.32157636 78.15321246 8.9375 79.75 C9.62585938 79.98396484 10.31421875 80.21792969 11.0234375 80.45898438 C12.70453645 81.03102499 14.38372163 81.60868456 16.0625 82.1875 C13.56500886 92.08140722 8.20044032 98.08666195 -0.26171875 103.62109375 C-14.69744888 112.07179124 -30.25380054 114.48177657 -46.73828125 111.5 C-61.76101907 107.18208733 -74.33553713 98.70409253 -82.40234375 85.1640625 C-90.81777433 68.84712076 -93.11653922 49.19309413 -88.3125 31.3125 C-81.96283108 13.21483738 -70.70745947 2.61287059 -54.25 -6.26171875 C-37.22498536 -13.48214906 -14.88648569 -10.15807301 0 0 Z " fill="#062862" transform="translate(615.9375,377.8125)"/>
<path d="M0 0 C7.585343 5.17834915 14.11309462 11.40530437 18.1875 19.75 C18.1875 20.41 18.1875 21.07 18.1875 21.75 C15.44288312 22.95151896 12.69297873 24.13638103 9.9375 25.3125 C9.16019531 25.65474609 8.38289063 25.99699219 7.58203125 26.34960938 C6.82792969 26.66865234 6.07382812 26.98769531 5.296875 27.31640625 C4.60561523 27.61490479 3.91435547 27.91340332 3.20214844 28.22094727 C0.7992997 28.85194257 -0.50033519 28.60441571 -2.8125 27.75 C-4.3828125 26.296875 -4.3828125 26.296875 -5.9375 24.5 C-11.52174486 18.63835205 -18.88891061 15.12402111 -26.94921875 14.51171875 C-34.56154825 14.35260515 -40.28340077 14.70877804 -46.8125 18.75 C-47.50988281 19.1625 -48.20726562 19.575 -48.92578125 20 C-56.53077321 25.0413506 -61.04697944 33.06476902 -63.33984375 41.796875 C-65.38752123 54.59062849 -64.6309113 68.37799509 -56.9375 79.25 C-50.89062943 86.4099761 -44.06461372 91.05958253 -34.62890625 92.1015625 C-23.68383789 92.38518029 -14.96185379 90.26092515 -6.8125 82.75 C-4.39422545 80.06663436 -4.39422545 80.06663436 -2.8125 77.75 C4.40680632 79.19386126 11.23860733 81.32788174 18.1875 83.75 C15.1624857 93.9851212 7.40003658 102.29328093 -1.859375 107.4453125 C-16.00385769 114.31833578 -32.48110187 116.52109982 -47.8125 112.125 C-62.87521689 106.65807484 -74.20457915 98.0376422 -81.8125 83.75 C-88.70912239 67.44137044 -91.44388724 46.59985939 -84.8125 29.75 C-78.27967577 13.99332368 -68.32539283 2.6510029 -52.4375 -4.125 C-35.7978768 -10.75450687 -15.31129459 -9.09108116 0 0 Z " fill="#052862" transform="translate(496.8125,376.25)"/>
<path d="M0 0 C0 7.92 0 15.84 0 24 C-21.57448225 35.90799345 -43.31771597 46.82299754 -65.86474609 56.74731445 C-75.65531441 61.05777219 -85.39625316 65.46055433 -95.10678101 69.94818115 C-123.07640526 82.85907664 -151.50083613 94.70819756 -180.08740234 106.17993164 C-181.53616827 106.76179323 -182.98490008 107.34373978 -184.43359375 107.92578125 C-185.11103638 108.19757706 -185.788479 108.46937286 -186.4864502 108.74940491 C-190.16353977 110.23229216 -193.80032993 111.77844318 -197.41015625 113.41796875 C-201 115 -201 115 -203 115 C-203 113.35 -203 111.7 -203 110 C-202.33282959 109.64397705 -201.66565918 109.2879541 -200.97827148 108.92114258 C-189.08318615 102.56550995 -177.21700361 96.17977744 -165.5 89.5 C-156.44374596 84.34043277 -147.30211142 79.36045665 -138.11328125 74.44140625 C-129.87285969 70.02446246 -121.67877803 65.52956111 -113.5 61 C-104.36404059 55.94150711 -95.20389128 50.93432794 -86 46 C-76.13676824 40.71175432 -66.32483522 35.33699627 -56.53305054 29.91815186 C-47.17424634 24.73946915 -37.78751304 19.61518471 -28.37207031 14.54003906 C-23.75718269 12.04903963 -19.15564029 9.53878745 -14.58203125 6.97265625 C-13.7418042 6.50134277 -12.90157715 6.0300293 -12.03588867 5.54443359 C-10.47263312 4.66457796 -8.91145858 3.78101063 -7.3527832 2.89306641 C-2.21731694 0 -2.21731694 0 0 0 Z " fill="#0C2D68" transform="translate(352,515)"/>
<path d="M0 0 C1.39456452 0.00667256 2.78911118 0.01863093 4.18359375 0.03515625 C5.2499707 0.04192383 5.2499707 0.04192383 6.33789062 0.04882812 C8.09899388 0.06064761 9.86005411 0.07858362 11.62109375 0.09765625 C14.74962553 6.08521428 17.26278411 12.12997058 19.59765625 18.46484375 C19.96499878 19.4499292 20.33234131 20.43501465 20.71081543 21.44995117 C21.89321302 24.62272428 23.06968318 27.79765902 24.24609375 30.97265625 C25.85867804 35.3067353 27.47416457 39.63973013 29.08984375 43.97265625 C29.48342072 45.02935516 29.87699768 46.08605408 30.28250122 47.17477417 C33.76716158 56.51923896 37.33413492 65.82956428 40.97900391 75.11279297 C41.51726807 76.49362061 41.51726807 76.49362061 42.06640625 77.90234375 C42.37078613 78.67562012 42.67516602 79.44889648 42.98876953 80.24560547 C43.62109375 82.09765625 43.62109375 82.09765625 43.62109375 84.09765625 C38.67109375 84.09765625 33.72109375 84.09765625 28.62109375 84.09765625 C25.68112615 77.28931022 23.43452883 71.35139657 21.62109375 64.09765625 C10.07109375 64.09765625 -1.47890625 64.09765625 -13.37890625 64.09765625 C-14.36890625 67.72765625 -15.35890625 71.35765625 -16.37890625 75.09765625 C-17.65450814 78.12265502 -18.9693417 81.13271012 -20.37890625 84.09765625 C-25.32890625 84.09765625 -30.27890625 84.09765625 -35.37890625 84.09765625 C-28.75743473 65.82786213 -21.97590887 47.61960009 -15.12756348 29.4336853 C-14.20956394 26.99541475 -13.29249473 24.55679373 -12.37634277 22.11782837 C-11.07533652 18.65560451 -9.77064865 15.1947914 -8.46484375 11.734375 C-8.06737946 10.67527924 -7.66991516 9.61618347 -7.26040649 8.5249939 C-6.89522919 7.5598587 -6.53005188 6.59472351 -6.15380859 5.6003418 C-5.83390961 4.75150925 -5.51401062 3.9026767 -5.18441772 3.02812195 C-3.83882254 -0.19669288 -3.79845427 0.10978192 0 0 Z " fill="#062761" transform="translate(439.37890625,520.90234375)"/>
<path d="M0 0 C7.59 0 15.18 0 23 0 C23 38.61 23 77.22 23 117 C15.41 117 7.82 117 0 117 C0 78.39 0 39.78 0 0 Z " fill="#062963" transform="translate(648,371)"/>
<path d="M0 0 C0.85078125 -0.01546875 1.7015625 -0.0309375 2.578125 -0.046875 C9.09014298 -0.00692397 14.68941288 1.36198266 19.52685547 5.94726562 C23.21242111 10.19214021 25.25728966 13.64412292 25.22705078 19.26855469 C25.22689972 20.20922791 25.22674866 21.14990112 25.22659302 22.11907959 C25.21627045 23.12650208 25.20594788 24.13392456 25.1953125 25.171875 C25.1924826 26.20942932 25.18965271 27.24698364 25.18673706 28.315979 C25.17554865 31.62743701 25.15044627 34.93862384 25.125 38.25 C25.11496848 40.49608984 25.10584293 42.74218393 25.09765625 44.98828125 C25.07561365 50.49229187 25.04109275 55.99609997 25 61.5 C20.71 61.5 16.42 61.5 12 61.5 C11.505 59.52 11.505 59.52 11 57.5 C10.071875 58.139375 9.14375 58.77875 8.1875 59.4375 C1.46104488 63.78991214 -6.26645334 63.0328231 -14 62.5 C-19.73519561 61.09993754 -22.9014884 58.03637867 -26.08984375 53.18359375 C-28.62152136 48.50053345 -28.65269777 43.67550941 -28 38.5 C-25.82850305 32.37743787 -21.91105374 29.33408601 -16.28125 26.41015625 C-12.24556759 24.80002953 -8.23388866 24.36894 -3.91796875 24.18359375 C-2.98662109 24.14169922 -2.05527344 24.09980469 -1.09570312 24.05664062 C0.34385742 23.99766602 0.34385742 23.99766602 1.8125 23.9375 C2.79154297 23.89431641 3.77058594 23.85113281 4.77929688 23.80664062 C7.18607027 23.7009774 9.59293983 23.59887673 12 23.5 C11.60246179 22.03633658 11.18118616 20.5791065 10.75 19.125 C10.40195312 17.90683594 10.40195312 17.90683594 10.046875 16.6640625 C8.75860238 14.00099148 7.74559906 13.47817065 5 12.5 C-0.09969756 11.8463875 -4.53680291 11.61598509 -9 14.3125 C-10.94050524 16.36499403 -10.94050524 16.36499403 -12.26953125 18.1875 C-14 19.5 -14 19.5 -16.69921875 19.35546875 C-17.68535156 19.13503906 -18.67148437 18.91460938 -19.6875 18.6875 C-20.68136719 18.47480469 -21.67523437 18.26210938 -22.69921875 18.04296875 C-23.83810547 17.77419922 -23.83810547 17.77419922 -25 17.5 C-24.7574487 12.52769839 -23.11771642 9.90268327 -20.05859375 6.2109375 C-13.83214137 1.03601123 -7.95254589 -0.14459174 0 0 Z " fill="#05265F" transform="translate(587,543.5)"/>
<path d="M0 0 C6.35013391 3.76792178 9.70287798 9.34115318 11.5625 16.375 C11.93710153 19.85302131 11.91421306 23.28646974 11.85546875 26.78125 C11.85122391 27.7465564 11.84697906 28.71186279 11.84260559 29.7064209 C11.82593097 32.7629083 11.78829992 35.81871485 11.75 38.875 C11.73493866 40.95832375 11.7212528 43.04165793 11.70898438 45.125 C11.67606424 50.20859215 11.62436016 55.29168099 11.5625 60.375 C6.9425 60.375 2.3225 60.375 -2.4375 60.375 C-2.45208252 59.19470215 -2.46666504 58.0144043 -2.48168945 56.79833984 C-2.53982697 52.40350625 -2.61705881 48.00917674 -2.69995117 43.61474609 C-2.73312793 41.71574101 -2.76118231 39.81663904 -2.78393555 37.91748047 C-2.81761518 35.18154765 -2.8699372 32.44649689 -2.92578125 29.7109375 C-2.93217117 28.86695404 -2.9385611 28.02297058 -2.94514465 27.15341187 C-3.0679142 22.18922463 -3.6503717 18.65372078 -6.4375 14.375 C-10.9004945 11.39967033 -15.20493754 11.76120968 -20.4375 12.375 C-24.89385407 14.78885845 -26.53290759 17.76207257 -28.4375 22.375 C-28.88081654 25.34186981 -28.92529198 28.27699196 -28.94921875 31.2734375 C-28.96716995 32.10839752 -28.98512115 32.94335754 -29.00361633 33.80361938 C-29.05749922 36.45236261 -29.09154361 39.10092794 -29.125 41.75 C-29.15819259 43.55341005 -29.19268404 45.3567967 -29.22851562 47.16015625 C-29.31321275 51.56497534 -29.38012834 55.9697437 -29.4375 60.375 C-34.0575 60.375 -38.6775 60.375 -43.4375 60.375 C-43.4375 40.575 -43.4375 20.775 -43.4375 0.375 C-39.1475 0.375 -34.8575 0.375 -30.4375 0.375 C-30.1075 2.685 -29.7775 4.995 -29.4375 7.375 C-28.4475 6.26125 -28.4475 6.26125 -27.4375 5.125 C-20.00593974 -2.14095446 -9.69836254 -4.36334647 0 0 Z " fill="#05265F" transform="translate(536.4375,544.625)"/>
<path d="M0 0 C4.95 0 9.9 0 15 0 C15.44915771 1.20124512 15.89831543 2.40249023 16.36108398 3.64013672 C18.02420264 8.08716587 19.68876086 12.533655 21.35375977 16.97998047 C22.07485754 18.90626507 22.79556222 20.83269687 23.51586914 22.75927734 C24.54991565 25.52480022 25.58536405 28.28979463 26.62109375 31.0546875 C26.94403915 31.9193161 27.26698456 32.7839447 27.59971619 33.67477417 C27.89995193 34.47545319 28.20018768 35.2761322 28.50952148 36.10107422 C28.77377426 36.8072287 29.03802704 37.51338318 29.31028748 38.24093628 C29.99520916 40.06529896 29.99520916 40.06529896 31 42 C38.425 21.21 38.425 21.21 46 0 C50.62 0 55.24 0 60 0 C59.34335709 3.28321456 58.77079799 5.90704208 57.63989258 8.95947266 C57.36433533 9.70821655 57.08877808 10.45696045 56.80487061 11.22839355 C56.50445862 12.03216431 56.20404663 12.83593506 55.89453125 13.6640625 C55.4203476 14.94440369 55.4203476 14.94440369 54.93658447 16.25061035 C53.89985285 19.04382143 52.85670225 21.8345738 51.8125 24.625 C51.45840057 25.57453552 51.10430115 26.52407104 50.73947144 27.50238037 C45.66394832 41.10334701 40.45560992 54.64678819 35.0625 68.125 C34.76018463 68.88210266 34.45786926 69.63920532 34.14639282 70.41925049 C29.188514 82.811486 29.188514 82.811486 28 84 C25.46950598 84.07313567 22.96695163 84.09247527 20.4375 84.0625 C19.72658203 84.05798828 19.01566406 84.05347656 18.28320312 84.04882812 C16.52209987 84.03700864 14.76103964 84.01907263 13 84 C13.74684361 82.0196401 14.49766441 80.04078003 15.25 78.0625 C15.70117188 76.87398437 16.15234375 75.68546875 16.6171875 74.4609375 C18.01867133 70.95326894 19.60415613 67.6144438 21.3984375 64.29296875 C23.58077256 55.97458773 18.61047604 47.43061 15.5 39.9375 C14.95755097 38.61023415 14.4162209 37.28251047 13.87597656 35.9543457 C12.78310677 33.26838924 11.68662995 30.5839508 10.58789062 27.90039062 C8.25384323 22.18434178 5.99760367 16.43798845 3.75 10.6875 C3.36779297 9.71611084 2.98558594 8.74472168 2.59179688 7.74389648 C2.24697266 6.86290283 1.90214844 5.98190918 1.546875 5.07421875 C1.24620117 4.30682373 0.94552734 3.53942871 0.63574219 2.7487793 C0 1 0 1 0 0 Z " fill="#05265F" transform="translate(648,545)"/>
<path d="M0 0 C3.8043403 2.3787671 7.06213324 5.5880574 9.375 9.4375 C9.87 11.9125 9.87 11.9125 10.375 14.4375 C6.415 15.0975 2.455 15.7575 -1.625 16.4375 C-2.285 14.7875 -2.945 13.1375 -3.625 11.4375 C-6.75016861 10.01124856 -10.29052247 10.23801268 -13.6875 10.1875 C-14.73035156 10.16171875 -15.77320313 10.1359375 -16.84765625 10.109375 C-19.62874246 10.20524783 -19.62874246 10.20524783 -21.46484375 11.796875 C-22.80465635 13.45604503 -22.80465635 13.45604503 -23.125 15.9375 C-22.87653846 18.59312016 -22.87653846 18.59312016 -20.61328125 20.0078125 C-16.86294155 21.80209267 -13.4005802 22.26494935 -9.3125 22.8125 C-1.65094947 23.99978772 3.95836677 25.69022484 9.3125 31.5625 C12.0084733 36.32009994 11.96393075 41.28672046 10.984375 46.52734375 C9.22021889 52.41917281 5.61230463 55.42557023 0.375 58.4375 C-6.71986469 62.0467343 -16.85172815 61.51036191 -24.52734375 59.78515625 C-29.77839029 57.69371378 -33.71896187 54.29831918 -36.625 49.4375 C-37.5 46 -37.5 46 -37.625 43.4375 C-35.76875 42.9425 -35.76875 42.9425 -33.875 42.4375 C-33.17890625 42.251875 -32.4828125 42.06625 -31.765625 41.875 C-29.625 41.4375 -29.625 41.4375 -25.625 41.4375 C-25.315625 42.3346875 -25.315625 42.3346875 -25 43.25 C-22.98656805 46.45318719 -21.18669096 47.16546751 -17.625 48.4375 C-12.69913872 48.94251732 -7.85238488 49.3663384 -3.625 46.4375 C-2.80629815 42.87543339 -2.80629815 42.87543339 -2.625 39.4375 C-6.71790776 36.56849087 -10.58948704 35.7218757 -15.4375 35 C-22.83940079 33.74399101 -28.77840022 32.50306899 -34.0625 26.8125 C-37.17660148 22.07906575 -37.35234663 18.02744491 -36.625 12.4375 C-34.53525322 7.3388647 -31.28920074 3.39528584 -26.625 0.4375 C-18.99850642 -2.6443627 -7.68061107 -3.4681829 0 0 Z " fill="#062660" transform="translate(884.625,545.5625)"/>
<path d="M0 0 C4.71422739 3.25900378 7.34170236 6.5183499 9.73828125 11.7109375 C9.73828125 12.3709375 9.73828125 13.0309375 9.73828125 13.7109375 C8.49407478 14.2454631 7.24257189 14.76302361 5.98828125 15.2734375 C5.2921875 15.56347656 4.59609375 15.85351562 3.87890625 16.15234375 C1.37209578 16.8064932 0.13548626 16.6539374 -2.26171875 15.7109375 C-3.92838542 14.04427083 -5.59505208 12.37760417 -7.26171875 10.7109375 C-11.83103245 7.96934928 -17.09404904 8.07305327 -22.26171875 8.7109375 C-26.38068526 10.01371668 -28.90443127 12.2895215 -31.69921875 15.5859375 C-34.45425753 21.06038956 -34.01718158 27.78293634 -33.26171875 33.7109375 C-31.05911268 39.00977839 -28.43901413 42.12228981 -23.26171875 44.7109375 C-14.57629982 45.61756459 -14.57629982 45.61756459 -6.57421875 42.8984375 C-4.11945324 40.73941329 -4.11945324 40.73941329 -2.26171875 37.7109375 C-0.82378483 38.02143476 0.61361305 38.3344151 2.05078125 38.6484375 C2.85128906 38.82246094 3.65179687 38.99648438 4.4765625 39.17578125 C6.73828125 39.7109375 6.73828125 39.7109375 9.73828125 40.7109375 C8.95818342 46.94088546 5.42809685 49.85772709 0.73828125 53.7109375 C-6.71810263 59.11869874 -16.45432184 58.74748694 -25.26171875 57.7109375 C-33.37253723 55.80550653 -39.38341109 51.78510668 -44.01171875 44.8359375 C-48.43772492 37.16514224 -49.23859688 29.44303178 -48.26171875 20.7109375 C-45.68811368 11.73522397 -42.0133185 4.720766 -33.82421875 -0.0390625 C-22.7770043 -5.68057924 -11.04640455 -6.29587824 0 0 Z " fill="#062760" transform="translate(831.26171875,548.2890625)"/>
<path d="M0 0 C4.29 0 8.58 0 13 0 C13 5.61 13 11.22 13 17 C17.62 17 22.24 17 27 17 C27 20.96 27 24.92 27 29 C22.38 29 17.76 29 13 29 C13.0969456 33.50286816 13.1996766 38.00481746 13.31738281 42.50708008 C13.35565798 44.03857339 13.39051349 45.57015615 13.421875 47.10180664 C13.46755807 49.3038733 13.52554537 51.50532496 13.5859375 53.70703125 C13.59748871 54.39150833 13.60903992 55.07598541 13.62094116 55.78120422 C13.73273744 59.38460837 13.94394553 60.9159183 16 64 C18.6556728 64.58348752 18.6556728 64.58348752 21.625 64.6875 C23.39875 64.790625 25.1725 64.89375 27 65 C27 68.96 27 72.92 27 77 C10.91959437 77.94221127 10.91959437 77.94221127 5.66448975 73.65576172 C1.91333532 69.92427709 -0.17376388 65.15062985 -0.45410156 59.87890625 C-0.45348061 58.43994873 -0.43162424 57.00087345 -0.390625 55.5625 C-0.38496521 54.79695801 -0.37930542 54.03141602 -0.37347412 53.24267578 C-0.35130835 50.82777979 -0.30115539 48.41443777 -0.25 46 C-0.22990915 44.35028204 -0.21166294 42.70054052 -0.1953125 41.05078125 C-0.15150943 37.03326695 -0.08262602 33.01689574 0 29 C-2.64 29 -5.28 29 -8 29 C-8 25.04 -8 21.08 -8 17 C-5.36 17 -2.72 17 0 17 C0 11.39 0 5.78 0 0 Z " fill="#032660" transform="translate(721,528)"/>
<path d="M0 0 C4.62 0 9.24 0 14 0 C14 27.72 14 55.44 14 84 C9.38 84 4.76 84 0 84 C0 56.28 0 28.56 0 0 Z " fill="#042A64" transform="translate(627,521)"/>
<path d="M0 0 C4.62 0 9.24 0 14 0 C14 19.8 14 39.6 14 60 C9.38 60 4.76 60 0 60 C0 40.2 0 20.4 0 0 Z " fill="#04255F" transform="translate(758,545)"/>
<path d="M0 0 C15.84 0 31.68 0 48 0 C48 41.91 48 83.82 48 127 C46.02 127.495 46.02 127.495 44 128 C44.33 127.34 44.66 126.68 45 126 C45.10468239 124.34046432 45.14655551 122.67680071 45.15821838 121.01400757 C45.1680072 119.95948898 45.17779602 118.9049704 45.18788147 117.8184967 C45.19363693 116.65684494 45.1993924 115.49519318 45.20532227 114.29833984 C45.21522186 113.07885147 45.22512146 111.8593631 45.23532104 110.60292053 C45.2615435 107.25397739 45.28339119 103.90505854 45.30332303 100.55607557 C45.325167 97.05799747 45.35256345 93.55996305 45.37937927 90.06192017 C45.4293277 83.43568317 45.47425853 76.80942196 45.51740164 70.18313754 C45.56675566 62.64027965 45.62168058 55.09746559 45.67708123 47.55465007 C45.79093428 32.03647229 45.89703057 16.51825439 46 1 C31.48 1 16.96 1 2 1 C2 50.17 2 99.34 2 150 C4.97 149.01 4.97 149.01 8 148 C5.40503742 151.00469351 4.0785301 151.36858796 0 153 C0 102.51 0 52.02 0 0 Z " fill="#0A1F5D" transform="translate(237,406)"/>
<path d="M0 0 C15.84 0 31.68 0 48 0 C48 35.97 48 71.94 48 109 C47.67 109 47.34 109 47 109 C47 73.69 47 38.38 47 2 C32.15 2 17.3 2 2 2 C2.33 45.56 2.66 89.12 3 134 C2.01 134.33 1.02 134.66 0 135 C0 90.45 0 45.9 0 0 Z " fill="#021759" transform="translate(170,460)"/>
<path d="M0 0 C2.63394361 2.63394361 3.32311583 5.18560817 4.6015625 8.6875 C4.8428891 9.34580811 5.0842157 10.00411621 5.33285522 10.68237305 C5.84142819 12.07341089 6.34727281 13.46544882 6.85058594 14.85839844 C7.62284756 16.99404754 8.4044602 19.12609485 9.1875 21.2578125 C13 31.71364526 13 31.71364526 13 34 C4.75 34 -3.5 34 -12 34 C-8.625 22.75 -8.625 22.75 -6.73828125 17.7734375 C-6.34189453 16.72285156 -5.94550781 15.67226563 -5.53710938 14.58984375 C-5.13298828 13.52894531 -4.72886719 12.46804688 -4.3125 11.375 C-3.89677734 10.27542969 -3.48105469 9.17585937 -3.05273438 8.04296875 C-2.03818089 5.36081585 -1.02055394 2.67987417 0 0 Z " fill="#F1F3F6" transform="translate(443,539)"/>
<path d="M0 0 C0.3743038 4.67879749 0.44402217 8.07780011 -1.625 12.375 C-5.79986409 16.98932347 -9.456822 18.18815085 -15.5625 18.5 C-19.4785799 18.37728905 -20.80381291 18.12694459 -24.1875 15.9375 C-26.46334187 12.24906662 -26.69758716 10.26303263 -26 6 C-24.37619474 3.26905479 -22.93101092 2.30740926 -19.9296875 1.31640625 C-13.31327759 -0.22600442 -6.76017997 -0.20907773 0 0 Z " fill="#F9FAFB" transform="translate(599,577)"/>
<path d="M0 0 C4.62 0 9.24 0 14 0 C14 27.72 14 55.44 14 84 C9.38 84 4.76 84 0 84 C0 56.28 0 28.56 0 0 Z M2 2 C2 28.73 2 55.46 2 83 C5.3 83 8.6 83 12 83 C12 56.27 12 29.54 12 2 C8.7 2 5.4 2 2 2 Z " fill="#031655" transform="translate(627,521)"/>
<path d="M0 0 C3.66900829 2.63211465 4.84009531 4.08854326 5.625 8.5625 C5 12 5 12 2.875 14.4375 C-0.51598543 16.28042686 -2.19847951 16.63358675 -6 16 C-8.875 14.5 -8.875 14.5 -11 12 C-11.71730941 9.1770404 -11.71730941 6.8229596 -11 4 C-7.75032314 0.17685075 -4.94151119 -0.92653335 0 0 Z " fill="#06235C" transform="translate(768,521)"/>
<path d="M0 0 C4.29 0 8.58 0 13 0 C13 5.61 13 11.22 13 17 C17.62 17 22.24 17 27 17 C27 20.96 27 24.92 27 29 C23.7 29 20.4 29 17 29 C17 28.67 17 28.34 17 28 C19.97 28 22.94 28 26 28 C26 25.03 26 22.06 26 19 C24.60974609 19.01740234 24.60974609 19.01740234 23.19140625 19.03515625 C21.99386719 19.04417969 20.79632812 19.05320312 19.5625 19.0625 C18.36753906 19.07410156 17.17257812 19.08570313 15.94140625 19.09765625 C13 19 13 19 12 18 C11.92680379 15.30345146 11.90757463 12.63308542 11.9375 9.9375 C11.94201172 9.17888672 11.94652344 8.42027344 11.95117188 7.63867188 C11.9629932 5.75908129 11.98092922 3.87953101 12 2 C8.7 2 5.4 2 2 2 C2 6.95 2 11.9 2 17 C1.34 17 0.68 17 0 17 C0 11.39 0 5.78 0 0 Z " fill="#000C48" transform="translate(721,528)"/>
<path d="M0 0 C0 1.32 0 2.64 0 4 C-0.81404297 4.39832031 -0.81404297 4.39832031 -1.64453125 4.8046875 C-2.35996094 5.15789063 -3.07539063 5.51109375 -3.8125 5.875 C-4.52019531 6.22304688 -5.22789062 6.57109375 -5.95703125 6.9296875 C-8.21246418 8.0656486 -8.21246418 8.0656486 -11 10 C-12.98799818 10.70164642 -14.98698517 11.37372872 -17 12 C-17 10.35 -17 8.7 -17 7 C-14.9219935 5.82286337 -12.83848217 4.65828026 -10.75 3.5 C-10.16347656 3.16613281 -9.57695312 2.83226562 -8.97265625 2.48828125 C-5.61417893 0.63923194 -3.93354216 0 0 0 Z " fill="#0E316C" transform="translate(166,618)"/>
<path d="M0 0 C0.66 0 1.32 0 2 0 C2 7.92 2 15.84 2 24 C-6.3984375 28.78515625 -6.3984375 28.78515625 -9 30 C-9.66 29.67 -10.32 29.34 -11 29 C-9.54462432 28.16151196 -8.08559627 27.32936066 -6.625 26.5 C-5.40683594 25.80390625 -5.40683594 25.80390625 -4.1640625 25.09375 C-2 24 -2 24 0 24 C-0.03552979 23.30849854 -0.07105957 22.61699707 -0.10766602 21.90454102 C-0.26465181 18.79077094 -0.41368123 15.67667062 -0.5625 12.5625 C-0.61857422 11.47388672 -0.67464844 10.38527344 -0.73242188 9.26367188 C-0.78076172 8.22919922 -0.82910156 7.19472656 -0.87890625 6.12890625 C-0.9260376 5.17056885 -0.97316895 4.21223145 -1.02172852 3.22485352 C-1 1 -1 1 0 0 Z " fill="#091C5B" transform="translate(350,515)"/>
<path d="M0 0 C0.66 0.33 1.32 0.66 2 1 C2.33 1.99 2.66 2.98 3 4 C5.64 3.01 8.28 2.02 11 1 C11 1.66 11 2.32 11 3 C8.23371889 4.19922024 5.462845 5.38460499 2.6875 6.5625 C1.50897461 7.07586914 1.50897461 7.07586914 0.30664062 7.59960938 C-0.45068359 7.91865234 -1.20800781 8.23769531 -1.98828125 8.56640625 C-2.68477783 8.86490479 -3.38127441 9.16340332 -4.09887695 9.47094727 C-6 10 -6 10 -9 9 C-6.03 8.01 -3.06 7.02 0 6 C-0.33 5.01 -0.66 4.02 -1 3 C-1.66 2.67 -2.32 2.34 -3 2 C-2.01 1.34 -1.02 0.68 0 0 Z " fill="#081956" transform="translate(166,616)"/>
<path d="M0 0 C0.66 0.33 1.32 0.66 2 1 C-0.475 2.485 -0.475 2.485 -3 4 C-2.34 4.66 -1.68 5.32 -1 6 C-5.75 9 -5.75 9 -8 9 C-8 7.35 -8 5.7 -8 4 C-6.71349294 3.30289269 -5.42059335 2.61757124 -4.125 1.9375 C-3.40570313 1.55464844 -2.68640625 1.17179688 -1.9453125 0.77734375 C-1.30335938 0.52082031 -0.66140625 0.26429688 0 0 Z " fill="#172962" transform="translate(157,621)"/>
<path d="M0 0 C2.97 0.495 2.97 0.495 6 1 C6.33 1.99 6.66 2.98 7 4 C5.948125 4.12375 4.89625 4.2475 3.8125 4.375 C0.54041229 4.91140782 -2.00536076 5.63880035 -5 7 C-3.35 4.69 -1.7 2.38 0 0 Z " fill="#081B53" transform="translate(829,586)"/>
<path d="M0 0 C-0.33 1.65 -0.66 3.3 -1 5 C-2.32 5.33 -3.64 5.66 -5 6 C-5 5.34 -5 4.68 -5 4 C-5.66 3.67 -6.32 3.34 -7 3 C-7 2.34 -7 1.68 -7 1 C-4.53721199 -0.231394 -2.7204945 -0.07159196 0 0 Z " fill="#0D316D" transform="translate(174,614)"/>
<path d="M0 0 C0.66 0 1.32 0 2 0 C1.67 7.26 1.34 14.52 1 22 C0.67 22 0.34 22 0 22 C-0.19590444 18.52125243 -0.38031592 15.04199096 -0.5625 11.5625 C-0.61857422 10.56927734 -0.67464844 9.57605469 -0.73242188 8.55273438 C-0.78076172 7.60849609 -0.82910156 6.66425781 -0.87890625 5.69140625 C-0.9260376 4.81685791 -0.97316895 3.94230957 -1.02172852 3.04125977 C-1 1 -1 1 0 0 Z " fill="#001252" transform="translate(350,515)"/>
<path d="M0 0 C3.53586014 3.17320782 5.58578031 5.16743695 6 10 C4.02 10 2.04 10 0 10 C1.32 9.34 2.64 8.68 4 8 C3.01 6.576875 3.01 6.576875 2 5.125 C0 2 0 2 0 0 Z " fill="#051049" transform="translate(889,550)"/>
<path d="M0 0 C-6.4 4.06153846 -6.4 4.06153846 -9.4375 3.75 C-9.953125 3.5025 -10.46875 3.255 -11 3 C-10 1 -10 1 -8.22265625 0.33203125 C-7.15337891 0.07486328 -7.15337891 0.07486328 -6.0625 -0.1875 C-5.35222656 -0.36667969 -4.64195312 -0.54585937 -3.91015625 -0.73046875 C-2 -1 -2 -1 0 0 Z " fill="#092362" transform="translate(204,577)"/>
<path d="M0 0 C2.64 0.33 5.28 0.66 8 1 C6 3 6 3 2.375 3.125 C1.26125 3.08375 0.1475 3.0425 -1 3 C-0.67 2.01 -0.34 1.02 0 0 Z " fill="#123069" transform="translate(578,568)"/>
</svg>
